<?xml version="1.0" standalone="no"?>
<!DOCTYPE svg PUBLIC "-//W3C//DTD SVG 20010904//EN"
 "http://www.w3.org/TR/2001/REC-SVG-20010904/DTD/svg10.dtd">
<svg version="1.0" xmlns="http://www.w3.org/2000/svg"
 width="3569.000000pt" height="635.000000pt" viewBox="0 0 3569.000000 635.000000"
 preserveAspectRatio="xMidYMid meet">

<g transform="translate(0.000000,635.000000) scale(0.100000,-0.100000)"
fill="#000000" stroke="none">
<path d="M4330 6287 c-99 -34 -157 -72 -246 -163 -165 -167 -366 -524 -388
-690 -7 -48 -6 -52 19 -68 15 -10 30 -14 34 -9 4 4 25 51 46 103 52 131 154
327 230 440 177 267 379 347 679 270 220 -56 435 -201 507 -341 43 -85 63
-232 39 -294 -20 -52 -135 -82 -264 -70 -69 6 -73 8 -69 28 4 20 3 21 -10 5
-20 -24 -41 -23 -146 12 -150 49 -290 124 -409 220 -130 105 -148 116 -156 94
-16 -41 9 -124 45 -153 48 -38 92 -85 83 -88 -46 -17 -379 -250 -422 -296 -53
-56 4 -102 178 -144 550 -133 902 -428 1015 -853 39 -145 75 -382 75 -490 0
-403 -193 -758 -594 -1094 -191 -160 -299 -228 -551 -345 -257 -119 -702 -237
-964 -255 -46 -3 -86 -8 -88 -10 -3 -3 -6 -20 -8 -38 -3 -36 41 -680 76 -1103
37 -449 9 -519 -261 -654 -192 -96 -380 -131 -707 -131 -207 0 -324 12 -443
47 -138 40 -211 95 -239 181 -17 52 -39 601 -46 1127 -8 616 -18 734 -156
1845 -82 657 -86 708 -70 821 34 228 121 394 310 587 l91 92 -15 38 c-9 20
-23 46 -31 57 -8 11 -26 38 -41 60 -40 61 -107 150 -115 153 -14 6 -8 29 32
130 22 54 40 116 40 137 0 25 6 42 21 53 14 12 20 29 21 60 1 88 -43 133 -97
98 -22 -15 -25 -23 -23 -69 2 -85 -94 -340 -199 -521 -107 -188 -253 -350
-401 -447 -110 -72 -170 -92 -277 -93 -79 -1 -96 2 -141 26 -57 30 -91 77 -98
136 -16 131 -17 231 -2 302 46 218 284 557 528 751 120 96 196 139 316 179
130 43 213 45 279 4 136 -84 224 -323 244 -663 5 -97 14 -180 20 -185 17 -18
62 7 71 39 17 62 -14 409 -46 515 -7 25 -19 74 -25 109 -26 138 -77 207 -192
261 -137 64 -249 70 -392 21 -150 -52 -346 -189 -522 -366 -160 -160 -258
-313 -348 -540 -110 -279 -100 -463 30 -593 87 -87 132 -106 276 -119 118 -10
253 54 383 183 38 38 104 97 147 132 91 74 168 164 239 280 28 45 54 85 57 87
8 5 131 -180 131 -198 0 -7 -32 -51 -70 -97 -135 -162 -220 -309 -276 -475
-25 -76 -26 -87 -21 -215 3 -74 19 -241 35 -370 17 -129 33 -271 36 -315 4
-44 16 -156 27 -250 11 -93 24 -206 29 -250 23 -207 42 -369 56 -470 20 -160
32 -398 44 -930 13 -544 34 -979 54 -1092 8 -44 23 -97 34 -119 44 -85 140
-149 267 -177 215 -49 659 -49 955 -1 130 22 232 63 335 136 161 115 207 184
241 365 19 103 15 288 -9 443 -9 52 -21 178 -27 280 -6 102 -17 244 -25 315
-8 72 -17 171 -21 221 -6 84 -5 93 12 102 11 5 87 20 169 32 247 35 371 66
595 147 253 92 495 217 659 341 355 269 560 507 676 781 104 245 148 607 101
819 -23 107 -101 323 -153 427 -169 339 -465 549 -973 690 -52 14 -99 30 -103
34 -8 8 17 31 150 141 35 28 80 76 101 108 35 53 41 57 73 54 19 -1 100 -34
181 -73 195 -93 285 -113 483 -106 269 9 338 62 337 257 -1 118 -16 182 -58
252 -124 204 -344 338 -652 398 -137 27 -239 26 -322 -3z"/>
<path d="M4932 5615 c0 -16 2 -22 5 -12 2 9 2 23 0 30 -3 6 -5 -1 -5 -18z"/>
<path d="M4922 5555 c0 -16 2 -22 5 -12 2 9 2 23 0 30 -3 6 -5 -1 -5 -18z"/>
<path d="M2880 5470 c-334 -45 -561 -110 -850 -245 -85 -40 -178 -80 -207 -89
-90 -30 -122 -116 -43 -116 31 0 59 11 230 92 198 95 459 186 620 217 241 47
569 58 808 26 157 -21 165 -19 160 35 -4 37 -53 56 -210 79 -167 26 -323 26
-508 1z"/>
<path d="M813 5126 c-6 -8 -10 -15 -8 -17 2 -2 -8 -5 -21 -6 -58 -6 -64 -8
-60 -20 3 -8 -1 -10 -11 -6 -10 4 -14 2 -10 -4 4 -6 -16 -26 -46 -46 -62 -42
-73 -53 -82 -87 -5 -22 -2 -26 17 -27 39 -4 97 17 108 37 6 11 18 20 26 20 22
0 114 62 114 77 0 6 10 19 21 27 16 11 20 21 15 40 -7 29 -42 35 -63 12z"/>
<path d="M2365 5064 c-88 -19 -177 -61 -232 -109 -50 -43 -107 -153 -121 -234
-17 -94 18 -209 87 -285 94 -104 325 -184 502 -174 65 4 89 11 162 47 142 70
225 174 262 328 15 61 16 80 6 119 -34 136 -152 248 -314 299 -92 29 -237 33
-352 9z m310 -124 c64 -28 177 -111 216 -161 29 -37 31 -45 26 -91 -19 -156
-166 -288 -332 -296 -134 -7 -309 41 -395 109 -57 45 -71 80 -60 159 7 51 47
150 59 150 4 0 6 -28 7 -61 0 -61 1 -62 52 -106 53 -45 56 -58 25 -95 -13 -15
-13 -20 3 -48 10 -17 38 -40 63 -52 39 -19 49 -20 105 -10 50 9 67 18 91 46
27 30 73 142 54 130 -5 -2 -13 4 -18 15 -14 26 -14 28 4 28 8 0 15 -6 15 -14
0 -15 16 -18 24 -4 4 5 0 12 -6 14 -8 3 -6 6 5 6 9 1 17 8 17 17 0 8 5 12 10
9 15 -9 12 11 -4 24 -10 8 -16 9 -21 1 -3 -5 -11 -10 -16 -10 -6 0 -7 5 -4 10
3 6 0 10 -7 10 -10 0 -9 3 2 9 8 6 18 7 24 4 5 -3 6 -1 2 6 -4 6 -12 8 -18 5
-6 -4 -9 -1 -7 5 3 7 8 12 13 11 5 -1 13 4 17 12 6 9 9 2 9 -19 0 -32 14 -51
24 -34 3 5 -1 22 -9 37 -8 16 -15 37 -15 46 0 9 -5 20 -10 23 -6 3 -17 20 -26
37 -9 16 -11 27 -5 24 6 -4 9 -1 5 7 -5 15 -27 28 -79 48 l-30 12 30 8 c43 11
104 3 160 -21z m-181 -41 c20 -24 26 -41 26 -80 0 -68 -34 -105 -112 -120 -56
-11 -59 -11 -99 16 -26 19 -42 39 -46 57 -3 16 -10 31 -14 34 -19 12 -7 45 26
71 45 36 88 51 147 52 40 1 50 -3 72 -30z"/>
<path d="M2660 4560 c-6 -11 -8 -20 -5 -20 3 0 -1 -10 -9 -22 -7 -13 -12 -31
-11 -40 2 -9 -3 -19 -11 -22 -8 -3 -14 -12 -14 -21 0 -17 16 -20 25 -5 3 6 14
10 25 10 10 0 21 7 24 16 4 10 14 14 26 11 11 -3 18 -1 15 3 -3 5 6 20 20 34
14 15 23 31 19 37 -5 8 -9 8 -14 -1 -6 -9 -13 -7 -28 8 -11 11 -18 23 -14 26
3 3 -4 6 -16 6 -12 0 -26 -9 -32 -20z"/>
<path d="M3798 5011 c-31 -10 -72 -28 -91 -40 -80 -50 -156 -168 -176 -278
-19 -98 26 -202 133 -308 180 -179 465 -228 684 -118 66 33 126 97 160 171 23
49 27 70 27 152 0 86 -3 100 -29 148 -66 119 -236 237 -397 276 -89 22 -238
20 -311 -3z m322 -113 c58 -18 185 -87 229 -125 81 -69 110 -168 76 -264 -16
-44 -60 -109 -74 -109 -10 0 -2 48 10 56 4 2 -1 24 -12 47 -12 23 -31 61 -43
85 -28 57 -77 93 -132 100 -25 2 -42 7 -39 10 8 8 -56 44 -70 39 -8 -4 -12 8
-13 34 -2 33 1 39 23 45 31 8 56 -1 51 -18 -1 -7 -1 -10 1 -5 3 4 9 4 14 1 6
-3 16 0 24 6 8 7 22 10 30 6 8 -3 15 -2 15 3 0 4 -26 14 -57 21 -49 10 -90 33
-146 80 -12 10 71 1 113 -12z m-135 -40 c23 -28 27 -39 23 -80 -8 -79 -61
-118 -162 -118 -50 0 -57 3 -105 46 -28 25 -51 53 -51 61 0 19 73 93 92 93 7
0 20 -15 27 -32 l14 -33 4 28 c5 34 54 67 100 67 23 0 38 -8 58 -32z m-305
-128 c0 -5 -2 -10 -4 -10 -3 0 -8 5 -11 10 -3 6 -1 10 4 10 6 0 11 -4 11 -10z
m3 -47 c10 -46 23 -57 62 -55 19 2 67 -7 105 -18 68 -20 70 -22 70 -54 0 -18
11 -65 24 -104 14 -40 22 -72 18 -72 -4 0 2 -7 12 -15 27 -21 18 -19 -66 11
-93 34 -131 58 -194 126 -81 86 -106 155 -68 192 22 23 31 20 37 -11z m441
-338 c3 -8 1 -15 -3 -15 -5 0 -11 7 -15 15 -3 8 -1 15 3 15 5 0 11 -7 15 -15z"/>
<path d="M25850 4983 c-20 -7 -79 -63 -92 -86 -5 -11 -16 -61 -23 -113 -17
-125 1 -243 48 -319 51 -82 148 -190 216 -241 81 -61 95 -91 76 -165 -7 -30
-19 -81 -25 -114 -15 -79 -20 -86 -62 -101 -53 -18 -87 -43 -119 -88 -24 -32
-29 -49 -29 -95 l0 -56 -77 -40 c-118 -62 -237 -166 -314 -275 -39 -56 -87
-139 -95 -163 -4 -12 -17 -38 -30 -57 -13 -19 -24 -42 -24 -51 0 -8 -11 -38
-25 -65 -14 -27 -32 -79 -39 -116 -8 -36 -21 -79 -30 -96 -8 -16 -20 -66 -25
-110 -6 -45 -20 -121 -32 -169 -20 -82 -21 -108 -17 -398 4 -254 8 -316 20
-345 9 -19 24 -84 33 -145 10 -60 28 -135 41 -166 13 -31 27 -72 30 -90 15
-74 131 -267 187 -310 22 -17 30 -19 42 -9 21 18 20 24 -25 88 -95 140 -185
415 -221 682 -21 147 -17 595 5 740 36 235 140 518 248 681 66 99 180 212 265
261 33 20 71 47 86 62 14 14 31 26 36 26 16 0 41 55 41 88 0 65 18 89 101 138
73 44 81 51 92 91 6 24 16 43 23 43 7 0 23 58 40 148 16 81 32 150 37 153 11
8 -5 19 -88 64 -137 73 -234 169 -288 284 -26 56 -30 73 -29 152 0 71 5 99 23
135 12 25 27 48 34 50 7 3 42 -9 76 -27 126 -63 304 -278 343 -414 42 -143 41
-348 -1 -503 -21 -77 -23 -95 -12 -108 20 -25 90 -9 199 46 306 153 485 182
748 120 70 -16 168 -41 217 -54 120 -34 143 -33 156 2 8 20 7 42 -4 87 -38
161 34 301 224 437 119 84 210 116 303 104 120 -14 173 -45 161 -94 -15 -64
-47 -111 -98 -146 -72 -49 -150 -74 -294 -91 -68 -9 -133 -20 -146 -25 -12 -5
-44 -32 -72 -61 -39 -41 -43 -48 -17 -30 l32 22 0 -69 c0 -38 3 -96 6 -130 l7
-61 91 -47 c134 -69 194 -106 370 -228 195 -135 300 -234 415 -385 233 -310
317 -519 356 -886 16 -155 -58 -480 -170 -747 -35 -81 -172 -330 -211 -383
-21 -27 -30 -80 -13 -70 3 3 14 -4 24 -15 9 -10 23 -16 31 -13 11 4 11 0 -1
-24 -12 -23 -13 -45 -6 -104 7 -65 9 -68 10 -25 l1 49 78 -6 c92 -7 202 -39
226 -66 16 -18 16 -21 -15 -55 -42 -49 -83 -68 -144 -71 -80 -4 -136 -16 -142
-31 -8 -22 21 -59 82 -105 30 -23 55 -47 55 -55 0 -21 -54 -46 -69 -31 -10 9
-11 8 -6 -5 4 -11 0 -18 -13 -23 -28 -8 -64 2 -147 42 -38 18 -79 33 -91 33
-21 0 -74 -35 -74 -49 0 -4 25 -44 55 -90 66 -101 70 -126 19 -140 -71 -20
-224 12 -299 62 -65 43 -77 76 -51 138 16 38 16 39 16 72 0 13 9 33 21 46 67
71 -95 -8 -191 -93 -100 -90 -140 -117 -244 -166 -219 -102 -387 -135 -696
-135 -237 0 -292 7 -456 60 -114 37 -210 83 -314 151 -40 25 -97 55 -128 66
-31 11 -61 27 -68 36 -11 15 -13 14 -20 -13 -4 -17 -20 -41 -36 -55 -23 -20
-35 -46 -58 -128 -50 -179 -82 -218 -154 -188 l-39 16 7 81 7 80 -32 30 c-17
16 -35 29 -39 29 -5 0 -25 -24 -46 -52 -82 -115 -127 -147 -174 -123 -42 22
-88 78 -93 113 -8 48 31 88 112 115 42 14 71 31 84 49 19 26 19 28 3 53 -22
34 -50 43 -100 34 -67 -13 -146 -10 -181 7 -65 31 -90 110 -45 146 28 23 122
24 204 3 48 -13 65 -13 95 -3 63 21 66 29 24 54 -94 58 -126 69 -203 68 -90 0
-131 -19 -184 -82 -30 -37 -36 -52 -36 -91 0 -60 52 -141 116 -179 49 -30 55
-52 27 -100 -17 -29 -16 -31 16 -103 73 -160 177 -216 292 -154 l46 24 24 -25
c38 -41 122 -84 163 -84 62 0 115 38 149 106 9 17 32 84 51 150 29 100 32 120
20 127 -15 8 -20 67 -6 67 15 0 32 -24 32 -47 0 -15 14 -33 42 -53 22 -16 45
-30 51 -30 5 0 53 -27 106 -60 239 -147 562 -214 916 -188 319 22 544 96 749
246 l49 36 53 -57 c82 -89 214 -139 369 -141 127 -2 173 38 174 150 l1 41 78
6 c42 3 93 13 113 21 45 19 93 72 109 121 11 33 10 40 -10 67 -12 16 -20 30
-18 31 64 33 85 46 117 74 22 18 49 53 61 78 27 55 18 92 -37 149 -59 60 -135
91 -255 102 -38 4 -68 8 -68 9 0 2 18 32 40 68 60 99 195 372 234 473 43 110
90 287 112 419 22 135 16 372 -14 501 -48 204 -132 392 -267 594 -108 162
-204 271 -324 368 -131 108 -438 311 -576 382 -34 18 -42 50 -24 96 7 16 11
40 10 54 -2 28 23 69 35 58 4 -5 2 -20 -5 -35 l-13 -28 34 32 c41 39 66 49
160 62 185 26 299 114 343 266 30 102 7 158 -82 202 -48 23 -72 27 -168 31
-142 6 -193 -9 -312 -87 -127 -83 -249 -212 -273 -288 -7 -21 -19 -49 -27 -62
-8 -13 -17 -59 -20 -102 -3 -44 -8 -79 -10 -79 -3 0 -39 9 -81 20 -177 44
-312 63 -427 57 -174 -9 -384 -72 -527 -157 -35 -21 -64 -37 -66 -35 -2 2 4
25 13 52 14 38 18 88 19 243 l1 195 -31 72 c-59 135 -189 310 -301 404 -71 61
-176 99 -223 82z"/>
<path d="M595 4875 c-16 -8 -23 -14 -15 -14 8 0 26 6 40 14 32 18 15 18 -25 0z"/>
<path d="M14280 4870 c-170 -13 -399 -62 -552 -116 -113 -40 -294 -138 -393
-212 -112 -83 -262 -226 -325 -311 -137 -183 -241 -477 -286 -806 -19 -145
-35 -398 -28 -455 3 -25 17 -78 31 -119 22 -63 37 -85 92 -141 78 -77 156
-119 287 -152 75 -19 117 -22 269 -23 158 0 191 3 270 24 105 27 230 74 334
125 41 20 76 35 77 33 2 -1 -12 -56 -30 -122 -40 -145 -51 -184 -80 -300 -13
-49 -33 -121 -44 -160 -11 -38 -24 -92 -30 -120 -12 -54 -41 -169 -77 -310
-13 -49 -27 -115 -30 -145 -4 -30 -15 -83 -25 -117 -10 -34 -22 -90 -25 -125
-4 -34 -15 -94 -25 -133 -29 -107 -40 -206 -42 -370 -1 -127 2 -159 18 -206
34 -95 85 -169 189 -275 80 -80 116 -108 175 -137 120 -60 192 -71 445 -72
203 0 226 2 300 24 169 50 257 117 350 265 91 146 139 296 151 463 3 54 -1
267 -10 473 -9 206 -15 467 -14 580 1 126 -4 246 -12 311 -11 84 -11 124 -2
187 12 89 38 162 56 162 7 0 28 -16 47 -36 62 -65 183 -157 244 -185 33 -15
96 -35 140 -43 68 -14 89 -14 140 -3 218 46 482 340 579 643 40 126 68 289 73
429 5 119 3 139 -21 228 -70 257 -198 484 -380 675 -238 248 -601 441 -976
517 -244 50 -624 74 -860 55z m725 -114 c142 -27 352 -84 450 -123 245 -98
396 -202 574 -399 104 -116 153 -189 232 -349 128 -260 163 -418 141 -640 -16
-160 -39 -248 -97 -371 -93 -200 -187 -315 -338 -414 -167 -109 -335 -58 -573
172 -50 48 -98 88 -107 88 -24 0 -84 -66 -112 -124 -42 -86 -45 -129 -30 -406
19 -352 40 -977 40 -1200 0 -165 -3 -193 -23 -260 -36 -114 -119 -275 -175
-336 -184 -202 -603 -231 -954 -67 -114 53 -221 193 -279 363 -30 87 -23 222
25 510 62 370 126 636 268 1115 113 381 143 487 143 506 0 10 -10 25 -23 34
-31 20 -53 13 -243 -83 -271 -136 -367 -160 -598 -149 -258 12 -423 82 -485
205 -44 87 -63 311 -41 502 32 291 145 617 282 817 65 94 222 245 329 316 229
152 554 261 884 296 55 6 116 13 135 15 90 10 489 -2 575 -18z"/>
<path d="M22700 4870 c-170 -13 -399 -62 -552 -116 -113 -40 -294 -138 -393
-212 -112 -83 -262 -226 -325 -311 -137 -183 -241 -477 -286 -806 -19 -145
-35 -398 -28 -455 3 -25 17 -78 31 -119 22 -63 37 -85 92 -141 78 -77 156
-119 287 -152 75 -19 117 -22 269 -23 158 0 191 3 270 24 105 27 230 74 334
125 41 20 76 35 77 33 2 -1 -12 -56 -30 -122 -40 -145 -51 -184 -80 -300 -13
-49 -33 -121 -44 -160 -11 -38 -24 -92 -30 -120 -12 -54 -41 -169 -77 -310
-13 -49 -27 -115 -30 -145 -4 -30 -15 -83 -25 -117 -10 -34 -22 -90 -25 -125
-4 -34 -15 -94 -25 -133 -29 -107 -40 -206 -42 -370 -1 -127 2 -159 18 -206
34 -95 85 -169 189 -275 80 -80 116 -108 175 -137 120 -60 192 -71 445 -72
203 0 226 2 300 24 169 50 257 117 350 265 91 146 139 296 151 463 3 54 -1
267 -10 473 -9 206 -15 467 -14 580 1 126 -4 246 -12 311 -11 84 -11 124 -2
187 12 89 38 162 56 162 7 0 28 -16 47 -36 62 -65 183 -157 244 -185 33 -15
96 -35 140 -43 68 -14 89 -14 140 -3 218 46 482 340 579 643 40 126 68 289 73
429 5 119 3 139 -21 228 -70 257 -198 484 -380 675 -238 248 -601 441 -976
517 -244 50 -624 74 -860 55z m725 -114 c142 -27 352 -84 450 -123 245 -98
396 -202 574 -399 104 -116 153 -189 232 -349 128 -260 163 -418 141 -640 -16
-160 -39 -248 -97 -371 -93 -200 -187 -315 -338 -414 -167 -109 -335 -58 -573
172 -50 48 -98 88 -107 88 -24 0 -84 -66 -112 -124 -42 -86 -45 -129 -30 -406
19 -352 40 -977 40 -1200 0 -165 -3 -193 -23 -260 -36 -114 -119 -275 -175
-336 -184 -202 -603 -231 -954 -67 -114 53 -221 193 -279 363 -30 87 -23 222
25 510 62 370 126 636 268 1115 113 381 143 487 143 506 0 10 -10 25 -23 34
-31 20 -53 13 -243 -83 -271 -136 -367 -160 -598 -149 -258 12 -423 82 -485
205 -44 87 -63 311 -41 502 32 291 145 617 282 817 65 94 222 245 329 316 229
152 554 261 884 296 55 6 116 13 135 15 90 10 489 -2 575 -18z"/>
<path d="M560 4828 c0 -10 -4 -18 -10 -18 -5 0 -10 -18 -10 -40 0 -33 3 -38
17 -33 10 4 12 8 5 11 -7 2 -8 11 -2 27 5 12 6 26 3 29 -4 3 0 6 7 6 7 0 10 3
7 7 -4 3 -2 11 3 18 7 8 5 12 -5 12 -8 0 -15 -9 -15 -19z"/>
<path d="M595 4797 c1 -45 12 -47 36 -7 12 19 18 32 14 28 -4 -4 -17 -3 -29 2
-20 7 -22 5 -21 -23z"/>
<path d="M632 4754 c-7 -8 -8 -14 -3 -14 10 0 25 19 20 25 -2 1 -10 -3 -17
-11z"/>
<path d="M19739 4620 c-19 -10 -47 -36 -60 -57 -57 -86 -79 -123 -79 -134 0
-6 -9 -28 -19 -48 -11 -20 -34 -70 -52 -111 -17 -41 -40 -93 -49 -115 -26 -59
-58 -146 -66 -180 -4 -16 -15 -47 -25 -67 -11 -21 -19 -45 -19 -55 0 -30 -48
-123 -63 -123 -8 0 -73 29 -146 65 -239 118 -382 155 -590 155 -168 -1 -266
-28 -486 -136 -71 -35 -134 -64 -140 -64 -6 0 -24 42 -39 93 -58 190 -77 243
-122 331 -89 177 -205 303 -344 375 -200 104 -331 93 -501 -43 -102 -80 -190
-217 -245 -380 -37 -106 -44 -180 -29 -270 15 -84 44 -142 100 -198 60 -59
116 -81 215 -82 76 -1 92 2 154 31 46 22 92 56 142 105 74 71 74 71 95 52 12
-10 32 -36 45 -56 13 -20 64 -72 114 -115 l90 -77 -163 -166 c-176 -178 -188
-193 -312 -401 -134 -224 -465 -896 -465 -942 0 -5 -6 -23 -14 -40 -37 -82
-105 -268 -117 -322 -5 -22 -15 -62 -23 -90 -8 -27 -19 -77 -25 -110 -5 -33
-14 -80 -19 -105 -6 -25 -13 -117 -16 -205 -8 -196 7 -313 52 -407 17 -35 34
-80 38 -101 3 -21 21 -59 39 -85 17 -26 39 -61 47 -77 27 -51 153 -170 231
-219 134 -83 311 -129 502 -130 92 0 125 4 200 27 169 51 239 97 320 211 64
91 193 318 226 398 16 40 31 73 33 75 2 3 32 -5 66 -16 187 -62 442 -22 715
109 66 32 139 70 163 85 l42 26 0 -53 c1 -136 74 -339 166 -460 64 -82 170
-184 244 -232 163 -106 360 -168 535 -169 86 0 113 5 195 32 109 37 264 116
327 168 51 42 96 108 118 173 22 67 42 318 33 436 -26 393 -52 527 -162 864
-149 451 -207 605 -316 825 -116 237 -288 480 -513 725 -38 41 -80 94 -94 118
-18 31 -29 40 -36 33 -6 -6 -16 -11 -21 -11 -6 1 -2 8 9 18 21 17 168 189 215
251 l25 32 60 -27 c33 -15 89 -45 125 -67 110 -67 157 -83 309 -107 82 -13
150 5 209 56 77 66 106 158 100 314 -12 255 -127 431 -368 563 -189 104 -467
157 -561 107z m-2401 -127 c114 -58 207 -133 269 -216 77 -105 165 -313 207
-492 34 -147 47 -186 63 -192 7 -3 54 23 105 58 51 34 127 77 168 96 41 18 83
37 92 43 33 19 175 51 272 61 220 24 415 -30 701 -195 44 -25 100 -54 124 -63
41 -16 44 -16 57 1 7 10 22 59 34 110 34 150 41 176 80 301 74 234 157 418
219 484 97 104 407 38 622 -133 127 -100 203 -243 216 -406 16 -208 -55 -286
-240 -261 -112 15 -180 49 -249 124 -32 34 -58 65 -58 69 0 5 -6 8 -14 8 -21
0 -25 23 -7 37 14 11 13 12 -6 13 -25 0 -68 39 -78 70 -3 11 -10 20 -15 20 -5
0 -28 15 -53 34 -24 19 -55 37 -68 41 -13 4 -32 17 -41 28 -9 12 -19 19 -22
17 -11 -12 15 -154 39 -205 14 -31 25 -64 25 -74 0 -30 -71 -130 -168 -236
-50 -55 -92 -108 -92 -118 0 -40 34 -92 126 -189 129 -136 341 -392 408 -492
72 -107 120 -201 195 -376 35 -80 69 -158 76 -175 32 -74 118 -313 160 -450
99 -318 147 -567 166 -860 10 -147 9 -191 -5 -320 -10 -82 -23 -163 -30 -180
-32 -76 -190 -173 -377 -233 -132 -43 -223 -49 -321 -23 -84 22 -226 88 -304
142 -108 73 -258 239 -310 341 -38 75 -66 201 -69 309 -1 53 -8 113 -15 133
-15 45 -22 44 -134 -26 -96 -60 -246 -136 -341 -171 -103 -39 -188 -57 -301
-64 -119 -7 -174 7 -270 68 -33 22 -63 39 -67 39 -10 0 -42 -67 -62 -130 -49
-155 -197 -414 -299 -527 -57 -63 -111 -90 -218 -109 -271 -49 -542 15 -692
162 -108 106 -228 318 -262 460 -13 56 -15 101 -10 234 3 91 8 183 12 205 27
191 37 235 92 415 83 265 204 550 356 839 254 482 438 727 666 886 63 44 110
85 110 96 0 5 -21 20 -47 35 -87 50 -192 124 -228 159 -19 19 -52 62 -74 95
l-41 61 15 70 c8 39 16 92 17 118 3 77 -45 131 -72 81 -6 -11 -26 -65 -45
-119 -85 -243 -191 -340 -364 -332 -70 3 -142 39 -171 86 -37 60 -39 170 -5
291 37 131 58 176 116 254 45 62 81 96 158 150 41 28 138 69 166 70 11 0 62
-21 113 -47z"/>
<path d="M20551 3954 c0 -11 3 -14 6 -6 3 7 2 16 -1 19 -3 4 -6 -2 -5 -13z"/>
<path d="M19185 3145 c-94 -32 -195 -93 -257 -157 -94 -98 -152 -272 -115
-345 35 -68 173 -169 299 -221 146 -59 366 -29 515 71 l41 28 69 -20 c98 -30
127 -51 157 -115 30 -62 32 -83 12 -129 -20 -48 -74 -92 -135 -112 -67 -22
-190 -17 -276 12 -33 11 -94 30 -135 43 -41 12 -120 40 -175 62 -156 62 -284
106 -354 122 -35 8 -68 19 -72 23 -5 5 -2 27 7 50 15 39 15 44 -2 79 -41 82
-131 106 -226 61 -29 -14 -65 -37 -80 -51 -25 -22 -28 -32 -28 -91 0 -58 3
-68 19 -72 12 -3 19 -13 18 -24 -2 -27 -234 -139 -357 -173 -317 -88 -582
-146 -665 -146 -83 0 -138 37 -181 122 -44 86 -28 112 69 111 34 0 97 -8 139
-17 104 -22 116 -21 124 8 7 31 -9 62 -44 80 -46 23 -167 46 -244 46 -81 -1
-98 -9 -142 -75 -56 -82 -24 -221 71 -305 115 -101 248 -104 613 -15 144 36
347 97 383 116 27 15 28 9 12 -46 -22 -70 -19 -114 14 -193 94 -233 363 -370
608 -311 95 24 166 61 220 116 73 76 95 132 94 248 0 80 -19 149 -51 195 -12
17 -20 34 -17 37 3 3 72 -18 154 -46 81 -27 168 -55 193 -60 25 -5 59 -13 75
-16 17 -4 66 -9 111 -12 125 -8 223 27 301 107 76 78 95 226 39 311 -61 92
-145 154 -219 161 -43 4 -42 2 -28 67 22 103 -25 246 -116 350 -68 77 -144
116 -273 137 -75 12 -102 10 -165 -11z m268 -108 c146 -67 236 -253 178 -369
-12 -23 -35 -53 -51 -66 l-30 -23 15 41 c13 36 13 45 0 70 -8 15 -28 39 -45
54 -27 22 -41 26 -95 26 -58 0 -68 -3 -100 -31 -61 -54 -79 -108 -52 -156 17
-30 62 -64 106 -79 35 -12 33 -13 -49 -13 -66 0 -106 7 -183 31 -140 44 -209
96 -236 180 -11 32 -9 43 10 89 l22 51 13 -48 c20 -82 97 -134 196 -134 29 0
48 10 98 52 69 57 80 78 80 149 0 92 -48 130 -166 133 -41 0 -74 3 -74 6 0 11
63 43 109 56 70 20 188 11 254 -19z m-241 -109 c53 -30 63 -67 37 -124 -12
-24 -33 -53 -47 -64 -70 -56 -212 20 -212 114 0 20 12 40 40 68 39 40 41 40
92 34 29 -4 69 -17 90 -28z m-544 -420 c17 -17 14 -49 -7 -77 -17 -22 -23 -24
-95 -19 -42 3 -79 8 -82 11 -7 6 56 65 90 84 27 16 79 16 94 1z m167 -202 c28
-19 67 -41 88 -50 20 -8 37 -21 37 -29 0 -8 16 -31 35 -51 57 -61 101 -253 76
-336 -18 -62 -91 -135 -159 -160 -122 -46 -239 -37 -366 28 -135 70 -215 170
-217 271 -2 72 23 111 137 219 93 87 109 98 151 104 37 6 51 4 59 -7 14 -19
44 -157 58 -270 9 -71 15 -91 29 -93 50 -10 45 168 -10 331 l-30 89 31 -6 c17
-4 54 -22 81 -40z"/>
<path d="M17915 2972 c-92 -9 -239 -73 -312 -136 -66 -57 -124 -190 -109 -248
8 -35 138 -194 187 -232 84 -63 119 -76 216 -76 96 1 227 30 298 68 118 62
216 175 237 274 12 55 11 58 -22 123 -56 110 -133 172 -260 208 -54 16 -173
25 -235 19z m117 -91 c18 -11 57 -27 85 -36 29 -10 50 -21 47 -26 -3 -5 1 -6
8 -4 17 7 64 -40 49 -49 -5 -4 -12 -2 -16 4 -4 6 -11 8 -16 4 -5 -3 -7 -10 -4
-15 9 -13 -19 -11 -33 3 -9 9 -12 9 -12 -1 0 -7 -5 -9 -11 -5 -8 4 -7 0 1 -15
6 -12 21 -26 33 -31 12 -5 20 -9 17 -10 -24 -7 -39 -7 -35 0 3 4 -1 10 -9 13
-11 4 -13 -2 -9 -25 2 -17 1 -28 -5 -24 -5 3 -7 -6 -4 -21 5 -24 6 -25 12 -7
4 11 16 26 26 34 11 9 15 10 10 3 -4 -8 -2 -13 4 -13 7 0 10 6 7 14 -7 18 21
42 48 41 23 -1 44 29 45 63 0 34 22 23 43 -22 24 -50 25 -122 2 -166 -27 -51
-123 -142 -144 -135 -10 3 -33 -7 -57 -25 -40 -30 -83 -39 -85 -17 0 6 -4 3
-9 -8 -5 -11 -9 -14 -9 -6 -1 10 -4 11 -15 2 -30 -25 -108 -24 -185 3 -89 31
-134 64 -161 116 -24 47 -24 51 -5 44 24 -10 18 20 -11 51 -39 42 -20 97 53
152 32 25 45 28 107 28 75 -1 142 -24 154 -53 3 -9 -6 -25 -23 -39 -27 -24
-27 -25 -5 -21 36 5 34 -16 -2 -30 -18 -6 -57 -33 -87 -59 l-54 -47 -29 17
c-40 23 -46 22 -40 -10 6 -38 30 -63 58 -63 16 0 28 -10 38 -29 8 -15 32 -36
52 -46 35 -17 40 -17 91 -1 61 20 79 41 88 108 6 38 3 52 -13 75 -30 42 -33
83 -7 83 18 0 35 38 27 60 -9 23 -31 38 -99 71 -35 16 -78 29 -98 29 -54 0
-42 15 33 38 85 26 113 27 154 3z m133 -441 c-3 -5 -11 -10 -16 -10 -6 0 -7 5
-4 10 3 6 11 10 16 10 6 0 7 -4 4 -10z"/>
<path d="M18063 2726 c0 -9 4 -16 9 -16 5 0 6 -5 2 -12 -4 -6 -3 -8 4 -4 6 3
13 2 17 -4 3 -5 10 -10 15 -10 11 0 1 38 -13 47 -6 3 -7 1 -3 -5 11 -18 -5
-14 -19 4 -11 15 -12 15 -12 0z"/>
<path d="M18140 2631 c0 -5 5 -13 10 -16 6 -3 10 -2 10 4 0 5 -4 13 -10 16 -5
3 -10 2 -10 -4z"/>
<path d="M18067 2443 c-10 -9 -9 -23 1 -23 5 0 9 7 9 15 0 17 -1 18 -10 8z"/>
<path d="M17500 2415 c41 -8 76 -12 78 -10 8 7 -74 25 -113 24 -32 -1 -24 -4
35 -14z"/>
<path d="M26120 4636 c0 -2 8 -10 18 -17 15 -13 16 -12 3 4 -13 16 -21 21 -21
13z"/>
<path d="M31347 4630 c-211 -25 -579 -148 -709 -238 -24 -16 -57 -38 -75 -48
-103 -61 -192 -134 -305 -247 -71 -70 -139 -145 -153 -166 -13 -22 -29 -42
-35 -46 -6 -3 -17 -21 -25 -38 -8 -18 -35 -59 -59 -92 -24 -33 -69 -110 -99
-172 -31 -62 -67 -127 -80 -145 -14 -18 -29 -46 -33 -63 -4 -16 -27 -67 -51
-113 -24 -45 -43 -92 -43 -103 0 -11 -8 -36 -19 -57 -10 -20 -21 -55 -25 -77
-4 -22 -17 -78 -31 -125 -13 -47 -31 -139 -40 -205 -10 -66 -21 -136 -26 -156
-5 -20 -14 -117 -19 -215 -6 -99 -15 -231 -20 -295 -7 -79 -8 -155 -1 -240 11
-133 43 -325 59 -355 5 -11 24 -72 41 -137 17 -65 36 -126 41 -135 5 -9 25
-51 45 -92 32 -66 116 -196 270 -419 93 -135 356 -311 590 -396 225 -82 399
-109 650 -102 167 4 201 8 278 31 49 14 112 38 140 52 275 138 448 430 422
714 -16 180 -35 214 -182 335 -146 120 -245 169 -518 261 -237 79 -297 107
-352 167 -46 50 -67 118 -61 197 l3 45 58 3 c69 4 189 -25 321 -75 211 -81
234 -87 346 -87 97 -1 109 1 152 26 65 39 153 140 180 207 19 48 22 74 22 191
0 127 -2 140 -30 211 -65 163 -204 338 -341 429 -152 102 -256 117 -506 76
-87 -14 -178 -26 -204 -26 l-46 0 6 66 c6 86 53 181 110 227 94 75 180 94 347
77 115 -12 345 -72 420 -110 19 -9 68 -25 109 -35 66 -16 86 -17 183 -6 204
22 354 89 437 194 80 102 110 171 121 284 15 144 -9 247 -98 418 -27 52 -65
99 -152 186 -127 129 -207 186 -391 283 -234 123 -407 161 -622 136z m347
-122 c177 -47 393 -182 556 -347 188 -189 258 -313 267 -471 6 -103 -15 -178
-72 -264 -87 -132 -234 -189 -480 -188 -96 1 -109 4 -336 75 -227 72 -298 83
-416 70 -116 -13 -189 -39 -258 -91 -99 -75 -175 -226 -175 -350 0 -75 8 -93
54 -121 46 -29 90 -27 253 11 102 23 164 31 238 32 92 1 105 -1 165 -30 162
-77 343 -292 404 -480 9 -28 18 -89 19 -135 2 -73 -2 -92 -25 -141 -33 -72
-103 -147 -165 -178 -38 -20 -63 -25 -118 -25 -65 1 -78 5 -175 54 -156 80
-275 120 -395 133 -56 6 -118 8 -139 4 -33 -6 -40 -13 -59 -54 -37 -83 -22
-228 33 -317 31 -50 102 -110 168 -144 33 -17 155 -62 271 -100 116 -39 247
-89 290 -111 210 -109 331 -277 331 -458 0 -93 -18 -164 -64 -257 -93 -186
-260 -311 -480 -356 -121 -25 -409 -36 -531 -20 -180 24 -354 85 -497 174
-275 171 -542 503 -656 813 -42 113 -98 340 -113 459 -31 250 20 913 91 1191
84 326 294 749 500 1009 178 225 493 444 730 509 221 61 280 76 369 92 52 9
113 23 135 31 54 17 176 9 280 -19z m268 -3335 c8 -10 19 -31 22 -48 7 -29 7
-29 -13 -11 -30 27 -53 76 -37 76 7 0 20 -8 28 -17z"/>
<path d="M26170 4582 c0 -6 4 -13 9 -17 27 -16 62 -120 71 -208 l9 -92 -3 100
c-2 85 -6 106 -26 140 -32 54 -60 90 -60 77z"/>
<path d="M3314 4523 c-6 -4 -16 -18 -23 -30 -11 -21 -9 -23 13 -23 14 0 27 -3
29 -7 3 -5 -14 -6 -38 -5 -48 4 -86 -12 -140 -60 -71 -62 -78 -111 -29 -184
14 -20 24 -38 22 -39 -42 -43 -447 -232 -683 -320 -198 -75 -459 -115 -551
-85 -126 40 -177 162 -119 283 46 98 186 195 263 184 54 -8 104 13 115 48 9
25 6 32 -23 58 -31 28 -37 29 -92 23 -74 -7 -164 -43 -222 -87 -109 -84 -204
-249 -192 -336 8 -60 68 -174 111 -211 97 -86 211 -112 380 -87 60 9 113 18
116 21 4 2 10 -17 13 -43 47 -383 301 -620 740 -690 139 -22 420 -13 561 17
398 85 699 281 829 538 30 60 66 188 66 237 l0 32 73 6 c39 4 93 13 118 21 92
28 217 95 262 141 94 93 91 181 -9 278 -117 114 -261 154 -213 59 7 -15 51
-64 96 -110 46 -45 83 -91 83 -101 0 -26 -63 -79 -135 -112 -80 -38 -221 -69
-315 -69 -176 0 -442 54 -625 127 -72 29 -325 147 -345 161 -2 1 1 11 8 20 7
9 21 34 31 55 11 24 21 34 24 25 2 -7 4 3 2 23 -3 52 -29 83 -121 147 -11 7 0
3 24 -10 45 -23 109 -87 104 -102 -2 -5 3 -4 12 3 16 13 32 -1 21 -19 -3 -5 3
-10 14 -10 12 0 21 -5 21 -11 0 -10 8 -10 66 4 7 2 20 9 30 17 13 11 16 12 10
2 -7 -11 -4 -12 13 -3 11 7 21 15 21 18 0 3 -3 4 -6 0 -3 -3 -17 7 -31 24 -14
16 -30 26 -35 22 -6 -3 -8 -1 -5 4 4 6 -2 18 -13 28 -11 10 -20 15 -20 12 0
-3 -13 7 -29 21 -44 41 -51 45 -121 71 -70 26 -138 36 -156 24z m50 -233 c7
-7 0 -29 -19 -66 -35 -67 -41 -71 -56 -42 -6 13 -27 40 -47 60 -26 27 -31 39
-21 42 8 2 28 9 44 15 33 11 84 6 99 -9z m-83 -337 c73 -81 93 -116 124 -220
36 -119 44 -116 46 17 2 76 -1 92 -30 154 -17 38 -30 70 -29 72 10 9 131 -62
179 -105 114 -102 166 -299 113 -426 -22 -55 -89 -122 -141 -141 -43 -17 -46
-17 -80 1 -29 16 -44 38 -90 135 -98 205 -217 421 -257 467 -21 24 -37 45 -35
47 2 1 33 14 69 28 73 28 81 26 131 -29z m-256 -97 c24 -25 61 -77 81 -118 20
-40 56 -107 79 -148 24 -41 64 -124 91 -185 55 -125 106 -186 173 -206 105
-31 252 54 319 187 27 52 45 163 37 223 -8 58 -40 163 -66 212 -10 21 -19 40
-19 43 0 2 33 -5 73 -15 100 -25 339 -67 466 -82 l103 -11 -6 -54 c-20 -173
-135 -337 -318 -456 -109 -70 -164 -97 -284 -139 -412 -143 -866 -114 -1132
73 -155 109 -250 277 -255 452 l-2 63 45 13 c169 50 340 108 425 146 55 24
110 44 123 45 14 1 39 -15 67 -43z"/>
<path d="M3304 4268 l-19 -21 28 18 c28 18 33 25 19 25 -5 0 -17 -10 -28 -22z"/>
<path d="M34238 4470 c-218 -39 -411 -98 -576 -176 -220 -104 -344 -222 -510
-489 -14 -22 -34 -52 -44 -68 -10 -15 -28 -46 -39 -70 -11 -23 -26 -53 -34
-67 -58 -102 -115 -293 -115 -387 0 -66 33 -192 70 -265 61 -124 143 -232 266
-353 67 -66 136 -129 153 -140 16 -11 78 -53 136 -92 150 -103 236 -141 544
-243 291 -97 357 -124 409 -174 73 -68 116 -198 115 -351 0 -127 -21 -181
-102 -258 -60 -57 -94 -78 -201 -120 -64 -25 -67 -25 -145 -12 -52 9 -109 28
-163 55 -88 44 -174 122 -352 319 -142 158 -266 218 -472 228 -101 5 -110 4
-160 -20 -59 -29 -178 -143 -232 -222 -94 -137 -99 -150 -108 -274 -24 -301
35 -467 236 -666 143 -142 314 -250 526 -330 52 -20 104 -40 115 -45 25 -11
203 -53 305 -71 47 -9 147 -14 270 -13 301 0 455 34 673 146 130 67 238 147
317 238 36 41 82 91 103 113 85 85 247 470 291 692 41 208 44 299 16 520 -32
254 -72 399 -150 535 -103 183 -290 374 -440 450 -60 30 -361 132 -520 175
-211 57 -216 62 -180 158 37 100 121 154 262 172 63 8 128 -3 343 -57 305 -76
377 -90 470 -91 100 -2 164 19 218 71 65 62 107 180 107 302 -1 196 -126 463
-275 584 -135 110 -348 214 -531 260 -226 57 -410 68 -596 36z m412 -90 c195
-22 401 -96 551 -196 82 -55 189 -167 237 -247 85 -142 114 -321 73 -456 -51
-167 -159 -202 -396 -127 -187 59 -409 107 -521 113 -97 5 -120 3 -189 -18
-102 -30 -182 -82 -222 -145 -35 -55 -63 -140 -63 -192 0 -92 117 -158 381
-217 129 -28 294 -76 347 -100 118 -54 233 -156 325 -288 178 -254 208 -325
248 -591 29 -192 23 -440 -15 -591 -74 -299 -207 -555 -376 -726 -87 -87 -126
-115 -270 -192 -201 -106 -361 -142 -635 -141 -168 0 -205 3 -316 27 -237 50
-456 135 -559 216 -28 22 -62 41 -75 41 -24 0 -145 86 -152 107 -3 8 7 10 34
6 35 -6 37 -5 24 11 -11 13 -23 16 -48 11 -32 -6 -34 -4 -52 37 -10 25 -49 73
-90 113 -87 86 -111 144 -118 280 -7 123 13 202 90 355 90 181 157 238 289
248 50 3 84 -1 139 -18 151 -46 214 -90 334 -240 168 -209 255 -277 430 -337
142 -48 215 -42 373 33 73 35 106 58 158 112 103 106 125 163 125 327 -1 246
-85 415 -248 495 -36 18 -186 72 -336 121 -149 49 -307 107 -351 128 -161 78
-335 210 -486 367 -113 118 -174 201 -223 303 -35 72 -41 95 -45 167 -8 144
29 267 135 459 131 238 245 378 383 470 90 60 295 160 413 200 88 31 254 68
347 78 75 8 269 6 350 -3z m636 -1997 c-7 -7 -26 7 -26 19 0 6 6 6 15 -2 9 -7
13 -15 11 -17z"/>
<path d="M35260 3781 c0 -6 5 -13 10 -16 6 -3 10 1 10 9 0 9 -4 16 -10 16 -5
0 -10 -4 -10 -9z"/>
<path d="M26242 4175 c0 -16 2 -22 5 -12 2 9 2 23 0 30 -3 6 -5 -1 -5 -18z"/>
<path d="M10945 4020 c-201 -15 -406 -71 -600 -165 -221 -106 -378 -254 -567
-535 -125 -186 -305 -549 -388 -785 -87 -249 -150 -617 -135 -795 11 -126 44
-340 70 -440 72 -286 178 -489 350 -669 150 -157 279 -251 469 -342 321 -153
618 -212 951 -189 370 26 577 115 786 338 146 155 244 382 289 670 14 84 7 79
145 111 178 41 297 124 373 261 121 215 130 575 20 781 -73 139 -292 293 -485
343 -162 42 -680 56 -802 22 -168 -46 -290 -144 -389 -311 -78 -133 -97 -201
-97 -360 0 -129 0 -130 37 -208 66 -137 167 -220 340 -276 85 -28 92 -36 69
-86 -24 -52 -40 -60 -163 -86 -198 -40 -273 -15 -438 151 -117 117 -183 216
-234 353 -29 77 -30 90 -30 222 0 123 4 151 28 230 39 129 92 221 195 340 171
198 396 263 771 220 182 -20 276 -16 388 20 174 55 312 199 363 377 20 71 24
105 23 228 0 170 -13 214 -93 320 -59 78 -110 117 -234 175 -159 76 -215 84
-577 89 -173 3 -369 1 -435 -4z m576 -90 c142 -14 196 -25 326 -66 135 -43
212 -90 270 -165 73 -95 90 -219 54 -396 -66 -318 -278 -442 -656 -383 -49 8
-146 14 -215 14 -149 -1 -246 -22 -398 -86 -96 -40 -109 -49 -205 -143 -148
-144 -203 -236 -247 -412 -32 -129 -42 -212 -42 -333 1 -185 50 -331 150 -444
26 -29 70 -80 98 -112 56 -65 173 -151 256 -189 140 -63 350 -48 485 35 63 38
114 157 95 222 -13 44 -47 78 -79 78 -66 0 -220 69 -273 122 -40 40 -85 133
-101 207 -34 164 38 365 181 510 124 125 237 157 535 148 276 -8 480 -47 640
-123 130 -61 204 -138 251 -259 24 -61 28 -88 32 -216 7 -217 -18 -326 -100
-450 -74 -111 -178 -160 -392 -185 -71 -8 -133 -17 -138 -20 -15 -10 -8 -35
19 -61 26 -27 26 -28 14 -88 -31 -154 -112 -394 -166 -490 -72 -128 -223 -269
-362 -336 -103 -50 -315 -105 -467 -120 -181 -18 -421 9 -596 68 -192 64 -556
285 -712 431 -195 184 -272 322 -362 648 -50 185 -70 329 -70 519 1 232 23
335 139 650 105 282 158 397 296 641 198 351 455 583 748 678 280 91 697 135
992 106z"/>
<path d="M26490 3753 c-8 -3 -40 -15 -70 -26 -66 -25 -152 -103 -186 -169 -81
-160 57 -323 286 -336 61 -3 78 -7 62 -13 -12 -5 -22 -15 -22 -24 0 -22 -38
-26 -97 -8 -24 6 -43 8 -43 3 0 -13 36 -31 91 -45 39 -10 52 -10 71 1 12 7 32
17 43 23 27 12 48 38 41 50 -8 12 23 43 35 36 5 -4 9 -17 9 -29 0 -35 25 -87
59 -125 28 -31 38 -35 94 -39 49 -4 69 -10 93 -31 16 -14 60 -42 97 -61 37
-19 67 -40 67 -46 0 -21 -59 -92 -106 -128 -107 -82 -208 -52 -291 86 -18 29
-36 68 -39 86 -6 30 -2 37 40 77 l47 43 -30 21 c-16 12 -40 21 -53 21 -12 0
-95 -18 -183 -39 -303 -75 -520 -91 -568 -43 l-21 22 30 42 c45 64 115 98 222
107 48 4 97 13 110 20 24 13 21 25 -22 84 -26 35 -71 36 -173 2 -95 -32 -152
-65 -197 -115 -81 -90 -87 -162 -20 -231 50 -51 110 -69 228 -69 74 0 286 25
356 41 8 2 14 -1 13 -8 -3 -17 50 -170 83 -238 16 -33 57 -89 91 -126 57 -60
68 -67 122 -79 35 -7 104 -11 172 -8 108 3 118 5 197 42 57 27 96 54 128 88
45 48 94 141 94 178 0 25 -7 25 130 -6 90 -20 131 -25 190 -21 190 13 341 130
343 266 1 92 -72 189 -180 238 -81 37 -101 35 -136 -14 -17 -24 -28 -45 -25
-48 3 -3 31 -10 63 -15 64 -10 115 -43 146 -94 41 -67 10 -143 -76 -186 -46
-23 -61 -25 -180 -24 -121 0 -136 3 -220 33 -108 39 -395 176 -395 188 0 5 11
24 25 43 14 19 25 43 26 54 0 12 3 15 6 8 2 -6 8 -10 13 -7 5 3 -2 31 -14 63
-30 76 -72 102 -169 102 l-68 0 8 38 c26 128 -37 253 -161 316 -54 27 -153 43
-186 29z m111 -103 c19 -5 55 -27 78 -47 74 -63 91 -138 45 -193 -32 -38 -68
-57 -114 -61 -19 -2 -44 -9 -55 -16 -31 -20 -41 -15 -18 10 33 36 32 50 -4 90
-26 29 -33 46 -31 69 4 41 23 46 42 11 9 -16 15 -21 16 -12 0 25 -58 108 -85
121 -14 6 -25 15 -25 19 0 18 96 24 151 9z m-167 -66 c20 -19 21 -58 2 -73
-10 -8 -25 -9 -48 -3 -40 10 -40 35 -2 70 30 26 28 26 48 6z m-89 -114 c10
-11 21 -40 25 -64 l7 -44 -24 15 c-31 20 -43 44 -43 82 0 36 10 39 35 11z
m595 -227 c0 -12 -66 -73 -79 -73 -13 0 -51 55 -51 74 0 1 29 2 65 2 36 -1 65
-2 65 -3z m-294 -444 c45 -85 108 -143 177 -164 69 -20 102 -19 168 9 78 32
140 85 194 168 38 57 49 67 61 57 20 -16 18 -33 -13 -95 -56 -115 -159 -174
-318 -182 -99 -5 -137 5 -199 53 -83 63 -149 215 -131 302 l8 38 8 -58 c5 -35
23 -86 45 -128z"/>
<path d="M26660 3511 c0 -27 -3 -64 -6 -82 l-6 -34 26 29 c38 42 34 136 -6
136 -4 0 -8 -22 -8 -49z"/>
<path d="M27284 3676 c-34 -8 -79 -23 -100 -34 -74 -38 -134 -121 -134 -184 0
-118 170 -278 337 -318 208 -49 377 147 306 355 -47 139 -233 221 -409 181z
m234 -121 c38 -21 57 -39 71 -69 25 -50 37 -121 23 -130 -17 -10 -72 62 -72
94 0 32 -24 53 -72 64 -39 9 -34 -4 13 -38 43 -30 46 -49 8 -54 -44 -4 -99
-23 -99 -32 0 -13 -61 -38 -102 -41 -49 -4 -75 8 -98 45 -29 47 -25 66 21 114
32 33 49 42 75 42 57 0 104 -74 52 -82 -13 -2 -50 0 -82 4 -33 5 -61 6 -63 4
-12 -12 21 -44 55 -54 43 -13 81 -5 114 24 14 14 17 14 26 -3 14 -25 28 -8 37
43 6 38 4 43 -23 63 -17 11 -40 25 -53 31 -19 8 -8 9 47 7 54 -3 83 -11 122
-32z m-138 -220 c0 -15 -6 -25 -14 -25 -24 0 -30 22 -11 37 25 17 25 17 25
-12z m-83 -1 c-3 -3 -12 -4 -19 -1 -8 3 -5 6 6 6 11 1 17 -2 13 -5z"/>
<path d="M6453 3615 c-104 -32 -257 -139 -366 -254 -132 -141 -307 -410 -383
-591 -58 -138 -171 -482 -198 -603 -93 -419 -33 -838 181 -1255 102 -199 247
-392 368 -488 133 -106 352 -220 519 -270 169 -51 296 -68 501 -69 202 0 262
8 459 56 145 36 234 71 396 156 153 80 231 135 334 233 144 137 251 286 398
550 156 280 224 468 263 724 45 303 46 732 2 986 -41 233 -86 409 -118 456
-46 68 -169 194 -232 236 -77 53 -171 95 -255 114 -89 21 -235 14 -316 -14
-60 -22 -149 -77 -186 -117 -42 -45 -93 -142 -106 -205 -8 -36 -20 -87 -26
-115 -7 -27 -11 -72 -9 -100 6 -84 4 -173 -6 -335 -9 -130 -15 -166 -38 -225
-66 -171 -128 -256 -223 -302 -49 -24 -69 -28 -142 -28 -72 1 -94 5 -143 29
-49 23 -66 39 -98 89 -81 125 -82 133 -88 652 -6 411 -8 464 -24 495 -50 101
-134 155 -297 190 -108 23 -111 23 -167 5z m253 -146 c80 -37 130 -88 139
-137 3 -20 1 -127 -4 -237 -6 -110 -9 -285 -7 -390 6 -379 63 -514 258 -608
107 -52 196 -71 261 -57 163 35 315 195 386 408 35 103 51 241 51 442 0 258
20 366 83 463 41 62 105 102 202 127 222 57 392 -7 575 -216 88 -101 144 -245
192 -499 19 -103 22 -153 23 -360 0 -208 -3 -254 -22 -345 -12 -58 -24 -145
-28 -195 -14 -205 -61 -352 -202 -632 -85 -169 -127 -239 -203 -340 -199 -266
-436 -475 -643 -567 -256 -113 -585 -169 -857 -146 -233 21 -487 125 -735 300
-211 151 -448 495 -513 745 -77 296 -88 668 -31 1007 25 146 55 248 114 383
24 55 67 153 94 218 65 152 158 293 263 399 137 139 307 247 390 249 24 1 54
5 68 9 47 15 82 10 146 -21z"/>
<path d="M26450 2755 c0 -15 58 -112 72 -121 6 -4 2 8 -9 27 -12 19 -30 50
-42 69 -11 19 -21 31 -21 25z"/>
<path d="M26560 2585 c19 -19 36 -35 39 -35 3 0 -10 16 -29 35 -19 19 -36 35
-39 35 -3 0 10 -16 29 -35z"/>
<path d="M26710 2451 c-133 -19 -257 -72 -340 -146 -38 -34 -59 -45 -84 -45
-35 0 -93 -36 -157 -97 -27 -25 -43 -33 -57 -29 -10 4 -72 45 -137 91 -65 47
-122 85 -127 85 -19 0 -48 -21 -48 -36 0 -72 215 -229 320 -234 72 -4 81 0
147 65 76 75 99 80 146 34 29 -29 30 -32 14 -44 -10 -7 -38 -16 -63 -20 -31
-4 -49 -13 -60 -30 -23 -36 -9 -64 44 -87 87 -38 103 -70 56 -107 -32 -25 -59
-26 -109 -5 -69 29 -135 -8 -114 -65 6 -14 19 -36 30 -47 28 -30 23 -84 -10
-101 -21 -10 -30 -9 -54 5 -47 27 -87 82 -87 119 0 30 -5 35 -52 57 -385 177
-404 184 -420 168 -19 -19 -12 -64 13 -83 13 -10 71 -39 129 -65 202 -90 219
-101 239 -147 21 -48 77 -109 124 -134 22 -12 55 -18 105 -18 l73 0 10 -38
c18 -69 184 -225 304 -285 60 -30 244 -72 316 -72 67 0 239 35 349 71 139 46
209 96 263 186 19 32 19 32 49 17 29 -15 33 -15 86 13 60 31 120 104 145 178
l14 40 74 7 c78 7 109 27 109 69 0 10 5 19 12 19 6 0 9 2 6 6 -3 3 -68 6 -144
7 l-137 2 -13 -57 c-18 -77 -57 -152 -93 -177 -16 -12 -33 -21 -38 -21 -19 0
-73 67 -79 97 -6 28 -1 36 36 71 31 28 43 47 43 67 0 39 -36 67 -72 57 -40
-11 -118 -7 -136 8 -19 16 -19 69 1 98 18 26 41 27 108 7 69 -21 102 -19 120
7 9 12 16 26 16 31 0 4 -26 34 -57 65 -32 32 -66 72 -76 90 l-18 32 33 20 c64
41 174 4 172 -57 -1 -26 4 -32 55 -55 51 -24 61 -26 111 -17 171 31 292 111
237 158 -10 8 -39 2 -113 -23 -156 -53 -158 -53 -193 -2 -85 123 -204 158
-314 93 l-39 -24 -48 47 c-50 48 -154 108 -275 155 -59 23 -88 28 -180 31 -60
1 -135 -1 -165 -5z m315 -145 c142 -39 235 -101 275 -183 13 -26 28 -57 33
-68 6 -11 6 -20 0 -22 -41 -14 -82 -47 -101 -82 -29 -51 -40 -147 -22 -191 16
-40 62 -78 103 -85 32 -6 33 -8 33 -58 -1 -34 6 -67 21 -96 20 -40 21 -47 8
-71 -40 -77 -145 -127 -352 -169 -177 -36 -298 -24 -443 46 -135 65 -261 220
-277 341 -5 38 -4 41 21 46 14 4 36 8 49 11 44 9 88 46 107 88 25 54 25 103 0
152 -12 24 -16 41 -10 43 18 6 40 60 40 99 0 22 -11 57 -26 83 -24 42 -24 45
-7 58 33 25 92 52 146 67 69 20 316 14 402 -9z"/>
<path d="M28593 845 c0 -22 2 -30 4 -17 2 12 2 30 0 40 -3 9 -5 -1 -4 -23z"/>
</g>
</svg>
