<?xml version="1.0" standalone="no"?>
<!DOCTYPE svg PUBLIC "-//W3C//DTD SVG 20010904//EN"
 "http://www.w3.org/TR/2001/REC-SVG-20010904/DTD/svg10.dtd">
<svg version="1.0" xmlns="http://www.w3.org/2000/svg"
 width="3800.000000pt" height="892.000000pt" viewBox="0 0 3800.000000 892.000000"
 preserveAspectRatio="xMidYMid meet">

<g transform="translate(0.000000,892.000000) scale(0.100000,-0.100000)"
fill="#000000" stroke="none">
<path d="M5210 7997 c-99 -34 -157 -72 -246 -163 -165 -167 -366 -524 -388
-690 -7 -48 -6 -52 19 -68 15 -10 30 -14 34 -9 4 4 25 51 46 103 52 131 154
327 230 440 177 267 379 347 679 270 220 -56 435 -201 507 -341 43 -85 63
-232 39 -294 -20 -52 -135 -82 -264 -70 -69 6 -73 8 -69 28 4 20 3 21 -10 5
-20 -24 -41 -23 -146 12 -148 48 -291 125 -410 221 -129 104 -147 115 -155 93
-16 -41 9 -124 45 -153 48 -38 92 -85 83 -88 -48 -17 -378 -249 -422 -296 -53
-56 4 -102 178 -144 549 -133 903 -431 1015 -853 39 -146 75 -382 75 -490 0
-403 -193 -758 -594 -1094 -191 -160 -299 -228 -551 -345 -257 -119 -702 -237
-964 -255 -46 -3 -86 -8 -88 -10 -3 -3 -6 -20 -8 -38 -3 -36 41 -680 76 -1103
18 -212 19 -274 10 -337 -21 -150 -79 -219 -260 -312 -186 -95 -334 -126 -647
-133 -249 -6 -380 5 -513 43 -139 41 -212 96 -240 182 -17 52 -39 601 -46
1127 -8 616 -18 733 -156 1845 -82 658 -86 708 -70 821 34 228 121 394 310
587 l91 92 -15 38 c-9 20 -23 46 -31 57 -8 11 -26 38 -41 60 -40 61 -107 150
-115 153 -14 6 -8 29 32 130 22 54 40 116 40 137 0 25 6 42 21 53 14 12 20 29
21 60 1 88 -43 133 -97 98 -22 -15 -25 -23 -23 -69 2 -85 -94 -340 -199 -521
-107 -188 -253 -350 -401 -447 -110 -72 -170 -92 -277 -93 -79 -1 -96 2 -141
26 -57 30 -91 77 -98 136 -16 131 -17 231 -2 302 46 218 284 557 528 751 120
96 196 139 316 179 130 43 213 45 279 4 136 -84 224 -323 244 -663 5 -97 14
-180 20 -185 17 -18 62 7 71 39 17 62 -14 409 -46 515 -7 25 -19 74 -25 109
-26 138 -77 207 -192 261 -137 64 -249 70 -392 21 -150 -52 -346 -189 -522
-366 -160 -160 -258 -313 -348 -540 -110 -279 -100 -463 30 -593 86 -86 135
-108 270 -119 124 -10 257 52 389 183 38 38 104 97 147 132 91 74 168 164 239
280 28 45 54 85 57 87 8 5 131 -180 131 -198 0 -7 -32 -51 -70 -97 -135 -162
-220 -309 -276 -475 -25 -76 -26 -87 -21 -215 3 -74 19 -241 35 -370 17 -129
33 -271 36 -315 4 -44 16 -156 27 -250 11 -93 24 -206 29 -250 23 -207 42
-369 56 -470 20 -160 32 -398 44 -930 13 -544 34 -979 54 -1092 8 -44 23 -97
34 -119 44 -85 140 -149 267 -177 215 -49 659 -49 955 -1 130 22 232 63 335
136 161 115 207 184 241 365 19 103 15 288 -9 443 -9 52 -21 178 -27 280 -6
102 -17 244 -25 315 -8 72 -17 171 -21 221 -6 84 -5 93 12 102 11 5 87 20 169
32 247 35 371 66 595 147 253 92 495 217 659 341 355 269 560 507 676 781 104
245 148 607 101 819 -23 107 -101 323 -153 427 -169 339 -465 549 -973 690
-52 14 -99 30 -103 34 -8 8 17 31 150 141 35 28 80 76 101 108 35 53 41 57 73
54 19 -1 100 -34 181 -73 195 -93 285 -113 483 -106 269 9 338 62 337 257 -1
118 -16 182 -58 252 -124 204 -344 338 -652 398 -137 27 -239 26 -322 -3z"/>
<path d="M5816 7358 c-3 -13 -5 -32 -5 -43 1 -11 5 -2 10 19 10 42 6 62 -5 24z"/>
<path d="M5802 7265 c0 -16 2 -22 5 -12 2 9 2 23 0 30 -3 6 -5 -1 -5 -18z"/>
<path d="M3760 7180 c-342 -46 -586 -118 -890 -263 -63 -30 -138 -62 -167 -71
-90 -30 -122 -116 -43 -116 31 0 59 11 230 92 198 95 459 186 620 217 241 47
569 58 808 26 157 -21 165 -19 160 35 -4 37 -53 56 -210 79 -167 26 -323 26
-508 1z"/>
<path d="M1702 6846 c-7 -13 -49 -30 -95 -41 -20 -4 -27 -10 -23 -20 4 -11
-11 -25 -48 -46 -51 -28 -86 -73 -86 -109 0 -24 90 -2 146 35 29 19 56 35 61
35 4 0 31 22 59 48 45 42 50 50 42 73 -10 29 -44 44 -56 25z"/>
<path d="M3245 6774 c-155 -33 -255 -103 -309 -217 -46 -96 -57 -162 -41 -241
32 -151 134 -248 326 -307 91 -28 119 -33 219 -33 l115 -1 87 43 c143 72 226
174 263 329 15 61 16 80 6 119 -34 136 -152 248 -314 299 -92 29 -237 33 -352
9z m307 -123 c64 -27 181 -114 219 -162 28 -36 31 -45 26 -88 -19 -158 -166
-291 -332 -299 -78 -4 -206 18 -293 50 -72 27 -149 89 -160 131 -13 46 1 134
30 192 l25 48 6 -64 c5 -61 7 -65 56 -107 52 -44 55 -57 24 -94 -13 -15 -13
-20 3 -48 29 -48 91 -73 161 -64 50 6 63 12 95 45 21 22 42 56 48 77 12 42 28
66 50 74 13 5 16 -2 15 -32 0 -21 -6 -45 -13 -53 -7 -8 -10 -22 -6 -31 4 -11
1 -16 -11 -16 -9 0 -13 -5 -10 -10 4 -6 1 -17 -5 -25 -7 -8 -9 -15 -5 -15 5 0
0 -9 -10 -20 -20 -22 -8 -28 14 -7 11 10 13 10 7 0 -9 -16 6 -17 21 -2 10 10
32 16 61 18 18 1 92 78 92 96 0 8 -9 15 -20 15 -16 0 -19 5 -16 25 3 14 0 25
-5 25 -5 0 -9 11 -9 25 0 14 -4 25 -10 25 -5 0 -10 5 -10 11 0 5 4 8 9 5 9 -6
21 16 21 39 0 12 -4 12 -27 0 -15 -8 -31 -11 -36 -8 -6 4 -8 0 -4 -10 3 -8 -1
-21 -10 -29 -14 -11 -15 -10 -9 9 4 12 9 32 11 45 3 13 7 36 11 52 4 18 2 26
-4 22 -5 -3 -22 7 -37 21 -30 31 -64 90 -45 78 8 -5 11 -3 9 4 -5 14 -39 35
-84 53 l-30 11 30 8 c42 11 104 3 157 -20z m-178 -42 c20 -24 26 -41 26 -80 0
-68 -34 -105 -112 -120 -56 -11 -59 -11 -99 16 -26 19 -42 39 -46 57 -3 16
-10 31 -14 34 -19 12 -7 45 26 71 45 36 88 51 147 52 40 1 50 -3 72 -30z m86
-264 c7 -9 8 -15 2 -15 -5 0 -12 7 -16 15 -3 8 -4 15 -2 15 2 0 9 -7 16 -15z"/>
<path d="M4760 6739 c-144 -19 -245 -90 -305 -212 -46 -94 -58 -160 -41 -225
36 -142 188 -292 351 -347 85 -29 195 -43 271 -34 177 22 290 94 353 228 22
48 26 69 26 151 0 86 -3 100 -29 148 -104 187 -394 322 -626 291z m240 -131
c58 -18 185 -87 229 -125 106 -90 120 -240 31 -344 -29 -34 -29 -34 -30 -8 0
14 4 29 10 35 6 6 -5 38 -32 92 -48 96 -89 132 -154 140 -40 4 -43 6 -27 19
17 14 17 14 -4 10 -12 -3 -31 2 -43 10 -11 8 -27 13 -34 10 -9 -4 -13 7 -14
34 -1 25 2 38 8 34 6 -3 10 -1 10 4 0 6 11 11 25 11 14 0 25 -4 25 -10 0 -5
-5 -9 -11 -7 -6 1 -13 -3 -16 -9 -2 -7 15 -14 43 -18 50 -6 74 1 53 16 -10 7
-2 8 24 4 62 -8 33 10 -45 29 -63 16 -103 37 -161 85 -12 10 71 1 113 -12z
m-135 -40 c23 -28 27 -39 23 -80 -8 -79 -61 -118 -162 -118 -50 0 -57 3 -105
46 -28 25 -51 53 -51 61 0 20 73 93 94 93 9 0 16 -8 16 -19 0 -10 7 -24 15
-31 13 -11 15 -8 15 14 0 19 9 32 33 46 49 30 90 26 122 -12z m-305 -128 c0
-5 -2 -10 -4 -10 -3 0 -8 5 -11 10 -3 6 -1 10 4 10 6 0 11 -4 11 -10z m23 -96
c3 -3 27 -6 53 -8 27 -1 75 -10 107 -20 54 -18 57 -21 57 -51 0 -17 11 -64 24
-103 17 -49 21 -72 13 -72 -7 -1 -1 -7 13 -15 34 -19 23 -18 -41 4 -99 34
-154 68 -217 135 -64 69 -90 124 -78 169 9 39 39 39 53 -1 6 -18 13 -36 16
-38z"/>
<path d="M4970 6471 c0 -6 5 -13 10 -16 6 -3 10 1 10 9 0 9 -4 16 -10 16 -5 0
-10 -4 -10 -9z"/>
<path d="M26730 6693 c-20 -7 -79 -63 -92 -86 -5 -11 -16 -61 -23 -113 -17
-125 1 -243 48 -319 51 -82 148 -190 216 -241 81 -61 95 -91 76 -165 -7 -30
-19 -81 -25 -114 -15 -79 -20 -86 -62 -101 -53 -18 -87 -43 -119 -88 -24 -32
-29 -49 -29 -95 l0 -56 -77 -40 c-118 -62 -237 -166 -314 -275 -39 -56 -87
-139 -95 -163 -4 -12 -17 -38 -30 -57 -13 -19 -24 -42 -24 -51 0 -8 -11 -38
-25 -65 -14 -27 -32 -79 -39 -116 -8 -36 -22 -80 -31 -98 -9 -17 -20 -66 -25
-109 -5 -43 -19 -118 -30 -167 -21 -84 -22 -108 -18 -399 4 -254 8 -316 20
-345 9 -19 24 -84 33 -145 10 -60 28 -135 41 -166 13 -31 27 -72 30 -90 15
-74 131 -267 187 -310 22 -17 30 -19 42 -9 21 18 20 24 -25 88 -95 140 -185
415 -221 682 -21 147 -17 595 5 740 36 235 140 518 248 681 65 98 180 211 259
257 31 17 70 45 87 62 18 16 36 30 42 30 15 0 40 55 40 88 0 65 18 89 101 138
73 44 81 51 92 91 6 24 16 43 23 43 7 0 23 58 40 148 16 81 33 150 38 153 9 7
-44 44 -108 74 -104 49 -218 166 -269 274 -26 56 -30 73 -29 152 0 71 5 99 23
135 12 25 27 48 34 50 7 3 42 -9 76 -27 126 -63 304 -278 343 -414 42 -143 41
-348 -1 -503 -21 -77 -23 -95 -12 -108 20 -25 90 -9 199 46 306 153 485 182
748 120 70 -16 168 -41 217 -54 120 -34 143 -33 156 2 8 20 8 40 -2 77 -21 83
-13 170 22 236 50 94 186 217 307 278 58 29 139 44 196 37 120 -14 173 -45
161 -94 -15 -64 -47 -111 -98 -146 -72 -49 -150 -74 -294 -91 -68 -9 -133 -20
-146 -25 -12 -5 -44 -32 -72 -61 -39 -41 -43 -48 -17 -30 l32 22 0 -69 c0 -38
3 -96 6 -130 l7 -61 91 -47 c134 -69 194 -106 370 -228 195 -135 300 -234 415
-385 233 -310 317 -519 356 -886 16 -155 -58 -480 -170 -747 -35 -81 -172
-330 -211 -383 -21 -27 -30 -80 -13 -70 3 3 14 -4 24 -15 9 -10 23 -16 31 -13
11 4 11 0 -1 -24 -11 -23 -13 -46 -6 -108 7 -71 8 -74 10 -27 l1 52 44 0 c91
0 237 -40 264 -73 11 -13 8 -21 -19 -52 -42 -48 -83 -67 -144 -70 -80 -4 -136
-16 -142 -31 -8 -22 21 -59 82 -105 30 -23 55 -47 55 -55 0 -21 -54 -46 -69
-31 -10 9 -11 8 -6 -5 4 -11 0 -18 -13 -23 -28 -8 -64 2 -147 42 -38 18 -79
33 -91 33 -21 0 -74 -35 -74 -49 0 -4 25 -44 55 -90 66 -101 70 -126 19 -140
-71 -20 -224 12 -299 62 -65 43 -77 76 -51 138 16 38 16 39 16 72 0 13 9 33
21 46 12 12 19 25 16 27 -13 13 -139 -60 -202 -116 -102 -91 -139 -117 -244
-166 -223 -106 -388 -139 -706 -139 -230 0 -266 4 -425 52 -109 32 -209 78
-329 152 -53 33 -118 66 -145 75 -27 10 -55 25 -62 34 -11 15 -13 14 -20 -13
-4 -17 -20 -41 -36 -55 -23 -20 -35 -46 -58 -128 -50 -179 -82 -218 -154 -188
l-39 16 7 81 7 80 -32 30 c-17 16 -35 29 -39 29 -5 0 -25 -24 -46 -52 -82
-115 -127 -147 -174 -123 -42 22 -88 78 -93 113 -8 48 31 88 112 115 42 14 71
31 84 49 19 26 19 28 3 53 -23 35 -50 43 -110 32 -140 -25 -238 19 -238 109 0
63 93 82 231 48 49 -13 69 -14 83 -5 10 6 24 11 31 11 7 0 18 5 25 12 9 9 3
17 -26 35 -93 57 -125 68 -202 67 -90 0 -131 -19 -184 -82 -30 -37 -36 -52
-36 -91 0 -60 52 -141 116 -179 49 -30 55 -52 27 -100 -17 -29 -16 -31 16
-103 73 -160 177 -216 292 -154 l46 24 24 -25 c38 -41 122 -84 163 -84 62 0
115 38 149 106 9 17 32 84 51 150 29 100 32 120 20 127 -15 8 -20 67 -6 67 15
0 32 -24 32 -47 0 -15 14 -33 42 -53 22 -16 45 -30 51 -30 5 0 53 -27 106 -60
239 -147 562 -214 916 -188 319 22 544 96 749 246 l49 36 53 -57 c82 -89 214
-139 369 -141 127 -2 173 38 174 150 l1 41 78 6 c42 3 93 13 113 21 45 19 93
72 109 121 11 33 10 40 -10 67 -12 16 -20 30 -18 31 64 33 85 46 117 74 22 18
49 53 61 78 27 55 18 92 -37 149 -59 60 -135 91 -255 102 -38 4 -68 8 -68 9 0
2 18 32 40 68 55 91 192 366 230 461 17 43 44 126 61 185 139 497 73 895 -226
1341 -108 162 -204 271 -324 368 -131 108 -438 311 -576 382 -34 18 -42 50
-24 96 7 16 11 40 10 54 -2 28 23 69 35 58 4 -5 2 -20 -5 -35 l-13 -28 34 32
c41 39 66 49 160 62 185 26 299 114 343 266 30 102 7 158 -82 202 -48 23 -72
27 -168 31 -142 6 -193 -9 -312 -87 -127 -83 -249 -212 -273 -288 -7 -21 -19
-49 -27 -62 -8 -13 -17 -59 -20 -102 -3 -44 -8 -79 -10 -79 -3 0 -39 9 -81 20
-177 44 -312 63 -427 57 -174 -9 -384 -72 -527 -157 -35 -21 -64 -37 -66 -35
-2 2 4 25 13 52 14 38 18 88 19 243 l1 195 -31 72 c-59 135 -189 310 -301 404
-71 61 -176 99 -223 82z"/>
<path d="M1443 6594 c-3 -9 0 -20 8 -25 10 -6 10 -9 2 -9 -7 0 -13 -9 -13 -20
0 -11 5 -20 10 -20 6 0 10 5 10 10 0 6 5 9 12 8 7 -2 12 2 13 9 0 7 9 19 20
27 25 18 14 31 -14 16 -23 -12 -45 -5 -36 11 4 5 4 9 0 9 -3 0 -8 -7 -12 -16z"/>
<path d="M15160 6580 c-170 -13 -399 -62 -552 -116 -114 -41 -295 -138 -394
-212 -111 -83 -261 -227 -324 -311 -139 -185 -243 -482 -286 -811 -20 -154
-35 -394 -28 -450 34 -284 284 -440 706 -440 160 0 351 50 557 146 52 24 95
43 97 41 1 -1 -12 -56 -30 -122 -40 -145 -51 -184 -80 -300 -13 -49 -33 -121
-44 -160 -11 -38 -24 -92 -30 -120 -12 -54 -41 -169 -77 -310 -13 -49 -27
-115 -30 -145 -4 -30 -15 -83 -25 -117 -10 -34 -22 -90 -25 -125 -4 -34 -15
-94 -25 -133 -29 -107 -40 -206 -42 -370 -1 -127 2 -159 18 -206 34 -95 85
-169 189 -275 80 -80 116 -108 175 -137 120 -60 192 -71 445 -72 203 0 226 2
300 24 169 50 257 117 350 265 91 146 139 296 151 463 3 54 -1 267 -10 473 -9
206 -15 467 -14 580 1 126 -4 246 -12 311 -16 123 -5 238 30 317 l21 46 57
-56 c130 -126 219 -184 329 -212 176 -46 332 11 491 178 129 136 225 293 276
452 37 115 76 356 76 471 0 74 -6 121 -26 192 -117 429 -404 778 -809 985
-232 119 -510 202 -805 240 -144 19 -461 27 -600 16z m530 -91 c403 -35 800
-174 1037 -364 72 -58 293 -292 354 -375 111 -152 203 -442 208 -658 4 -149
-43 -413 -93 -526 -85 -191 -293 -398 -444 -442 -139 -41 -298 34 -492 230
-41 42 -82 76 -92 76 -25 0 -84 -65 -113 -124 -42 -86 -45 -129 -30 -406 19
-352 40 -977 40 -1200 0 -165 -3 -193 -23 -260 -36 -114 -119 -275 -175 -336
-184 -202 -603 -231 -954 -67 -114 53 -221 193 -279 363 -30 87 -23 222 25
510 62 370 126 636 268 1115 113 379 143 487 143 506 0 10 -9 24 -21 32 -29
21 -66 9 -249 -83 -85 -43 -196 -93 -245 -111 -90 -33 -91 -33 -275 -33 -147
-1 -202 3 -265 18 -111 26 -198 69 -261 130 -76 74 -89 124 -89 336 1 315 58
577 181 839 173 367 415 581 814 720 324 113 625 145 1030 110z"/>
<path d="M23520 6580 c-170 -13 -399 -62 -552 -116 -114 -41 -295 -138 -394
-212 -111 -83 -261 -227 -324 -311 -139 -185 -243 -482 -286 -811 -20 -154
-35 -394 -28 -450 34 -284 284 -440 706 -440 160 0 351 50 557 146 52 24 95
43 97 41 1 -1 -12 -56 -30 -122 -40 -145 -51 -184 -80 -300 -13 -49 -33 -121
-44 -160 -11 -38 -24 -92 -30 -120 -12 -54 -41 -169 -77 -310 -13 -49 -27
-115 -30 -145 -4 -30 -15 -83 -25 -117 -10 -34 -22 -90 -25 -125 -4 -34 -15
-94 -25 -133 -29 -107 -40 -206 -42 -370 -1 -127 2 -159 18 -206 34 -95 85
-169 189 -275 80 -80 116 -108 175 -137 120 -60 192 -71 445 -72 203 0 226 2
300 24 169 50 257 117 350 265 91 146 139 296 151 463 3 54 -1 267 -10 473 -9
206 -15 467 -14 580 1 126 -4 246 -12 311 -16 123 -5 238 30 317 l21 46 57
-56 c130 -126 219 -184 329 -212 176 -46 332 11 491 178 129 136 225 293 276
452 37 115 76 356 76 471 0 74 -6 121 -26 192 -117 429 -404 778 -809 985
-232 119 -510 202 -805 240 -144 19 -461 27 -600 16z m530 -91 c403 -35 800
-174 1037 -364 72 -58 293 -292 354 -375 111 -152 203 -442 208 -658 4 -149
-43 -413 -93 -526 -85 -191 -293 -398 -444 -442 -139 -41 -298 34 -492 230
-41 42 -82 76 -92 76 -25 0 -84 -65 -113 -124 -42 -86 -45 -129 -30 -406 19
-352 40 -977 40 -1200 0 -165 -3 -193 -23 -260 -36 -114 -119 -275 -175 -336
-184 -202 -603 -231 -954 -67 -114 53 -221 193 -279 363 -30 87 -23 222 25
510 62 370 126 636 268 1115 113 379 143 487 143 506 0 10 -9 24 -21 32 -29
21 -66 9 -249 -83 -85 -43 -196 -93 -245 -111 -90 -33 -91 -33 -275 -33 -147
-1 -202 3 -265 18 -111 26 -198 69 -261 130 -76 74 -89 124 -89 336 1 315 58
577 181 839 173 367 415 581 814 720 324 113 625 145 1030 110z"/>
<path d="M1499 6535 c-32 -17 -37 -72 -5 -67 12 2 16 -1 11 -9 -5 -7 -3 -10 5
-7 21 7 24 28 4 28 -16 0 -16 1 0 19 10 11 16 26 14 34 -3 13 -7 14 -29 2z"/>
<path d="M1420 6480 c0 -33 3 -38 17 -33 9 4 12 8 6 10 -14 5 -4 43 11 43 12
0 -14 20 -26 20 -5 0 -8 -18 -8 -40z"/>
<path d="M27000 6345 c13 -14 26 -25 28 -25 3 0 -5 11 -18 25 -13 14 -26 25
-28 25 -3 0 5 -11 18 -25z"/>
<path d="M20619 6330 c-19 -10 -47 -36 -60 -57 -57 -86 -79 -123 -79 -134 0
-6 -9 -28 -19 -48 -11 -20 -34 -70 -52 -111 -17 -41 -40 -93 -49 -115 -26 -59
-58 -146 -66 -180 -4 -16 -15 -47 -25 -67 -11 -21 -19 -45 -19 -55 0 -30 -48
-123 -63 -123 -8 0 -73 29 -146 65 -239 118 -382 155 -590 155 -168 -1 -266
-28 -486 -136 -71 -35 -134 -64 -140 -64 -6 0 -24 42 -39 93 -58 190 -77 243
-122 331 -89 177 -205 303 -344 375 -200 104 -331 93 -501 -43 -102 -80 -190
-217 -245 -380 -37 -106 -44 -180 -29 -270 15 -84 44 -142 100 -198 60 -59
116 -81 215 -82 76 -1 92 2 154 31 46 22 92 56 142 105 74 71 74 71 95 52 12
-10 32 -36 45 -56 13 -20 64 -72 114 -115 l90 -77 -163 -166 c-176 -178 -188
-193 -312 -401 -134 -224 -465 -896 -465 -942 0 -5 -6 -23 -14 -40 -37 -82
-105 -268 -117 -322 -5 -22 -15 -62 -23 -90 -8 -27 -19 -77 -25 -110 -5 -33
-14 -80 -19 -105 -6 -25 -13 -117 -16 -205 -8 -196 7 -313 52 -407 17 -35 34
-80 38 -101 3 -21 21 -59 39 -85 17 -26 39 -61 47 -77 27 -51 153 -170 231
-219 134 -83 311 -129 502 -130 92 0 125 4 200 27 169 51 239 97 320 211 64
91 193 318 226 398 16 40 31 73 33 75 2 3 32 -5 66 -16 187 -62 442 -22 715
109 66 32 139 70 163 85 l42 26 0 -53 c1 -136 74 -339 166 -460 64 -82 170
-184 244 -232 163 -106 360 -168 535 -169 86 0 113 5 195 32 109 37 264 116
327 168 51 42 96 108 118 173 22 67 42 318 33 436 -26 393 -52 527 -162 864
-148 448 -207 603 -316 825 -115 235 -287 479 -513 725 -38 41 -80 94 -94 118
-18 31 -29 40 -36 33 -6 -6 -16 -11 -21 -11 -6 0 -2 8 10 18 20 16 162 182
214 251 l25 32 60 -27 c33 -15 89 -45 125 -67 110 -67 157 -83 309 -107 82
-13 150 5 209 56 77 66 106 158 100 314 -12 255 -127 431 -368 563 -189 104
-467 157 -561 107z m-2401 -127 c114 -58 207 -133 269 -216 77 -105 165 -313
207 -492 34 -147 47 -186 63 -192 7 -3 54 23 105 58 51 34 127 77 168 96 41
18 83 37 92 43 33 19 175 51 272 61 220 24 415 -30 701 -195 44 -25 100 -54
124 -63 41 -16 44 -16 57 1 7 10 22 59 34 110 34 150 41 176 80 301 74 234
157 418 219 484 96 103 408 38 618 -129 131 -105 206 -245 220 -410 12 -151
-26 -236 -117 -260 -96 -26 -291 27 -346 94 -14 17 -46 52 -71 79 -37 38 -43
50 -33 62 10 12 7 15 -17 21 -30 8 -59 35 -68 65 -4 11 -10 19 -15 19 -5 0
-28 15 -53 34 -24 19 -55 37 -68 41 -13 4 -32 17 -41 28 -9 12 -19 19 -22 17
-12 -12 16 -163 39 -209 14 -27 25 -58 25 -68 0 -32 -70 -130 -168 -238 -50
-55 -92 -108 -92 -118 0 -40 34 -92 126 -189 130 -137 341 -392 408 -492 72
-109 121 -204 195 -376 35 -80 69 -158 76 -175 32 -74 118 -313 160 -450 99
-318 147 -567 166 -860 10 -147 9 -191 -5 -320 -10 -82 -23 -163 -30 -180 -32
-76 -190 -173 -377 -233 -132 -43 -223 -49 -321 -23 -92 24 -235 93 -322 155
-124 88 -273 268 -314 379 -27 71 -56 248 -49 304 3 28 -1 59 -11 84 -18 48
-24 47 -136 -23 -96 -60 -246 -136 -341 -171 -103 -39 -188 -57 -301 -64 -119
-7 -174 7 -270 68 -33 22 -63 39 -67 39 -10 0 -42 -67 -62 -130 -49 -155 -197
-414 -299 -527 -57 -63 -111 -90 -218 -109 -276 -50 -545 15 -696 168 -76 77
-120 142 -188 276 -75 147 -88 215 -80 416 3 89 8 179 12 201 26 189 37 235
92 415 83 265 204 550 356 839 254 482 438 727 666 886 63 44 110 85 110 96 0
5 -21 20 -47 35 -87 50 -192 124 -228 159 -19 19 -52 62 -74 95 l-41 61 15 70
c8 39 16 92 17 118 3 77 -45 131 -72 81 -6 -11 -26 -65 -45 -119 -85 -243
-191 -340 -364 -332 -70 3 -142 39 -171 86 -37 60 -39 170 -5 291 37 131 58
176 116 254 45 62 81 96 158 150 41 28 138 69 166 70 11 0 62 -21 113 -47z"/>
<path d="M21431 5664 c0 -11 3 -14 6 -6 3 7 2 16 -1 19 -3 4 -6 -2 -5 -13z"/>
<path d="M20065 4855 c-94 -32 -195 -93 -257 -157 -94 -98 -152 -272 -115
-345 35 -68 173 -169 299 -221 146 -59 366 -29 515 71 l41 28 69 -20 c98 -30
127 -51 157 -115 30 -62 32 -83 12 -129 -20 -48 -74 -92 -135 -112 -67 -22
-190 -17 -276 12 -33 11 -94 30 -135 43 -41 12 -120 40 -175 62 -156 62 -284
106 -354 122 -35 8 -68 19 -72 23 -5 5 -2 27 7 50 15 39 15 44 -2 79 -41 82
-131 106 -226 61 -29 -14 -65 -37 -80 -51 -25 -22 -28 -32 -28 -90 0 -50 4
-67 17 -74 39 -22 21 -40 -100 -101 -67 -34 -151 -70 -187 -80 -225 -69 -629
-160 -705 -161 -90 0 -147 36 -191 122 -45 88 -28 113 74 111 37 -1 96 -9 132
-17 94 -23 118 -21 126 8 7 31 -9 62 -44 80 -46 23 -167 46 -244 46 -81 -1
-98 -9 -142 -75 -56 -82 -24 -221 71 -305 117 -103 250 -105 628 -11 137 35
313 88 379 116 16 7 18 5 12 -11 -34 -80 -33 -146 3 -232 94 -233 363 -370
608 -311 140 34 241 110 290 216 43 93 29 264 -27 343 -12 17 -20 34 -17 37 3
3 72 -18 154 -46 81 -27 168 -55 193 -60 25 -5 59 -13 75 -16 17 -4 66 -9 111
-12 125 -8 223 27 301 107 76 78 95 226 39 311 -61 92 -145 154 -219 161 -43
4 -42 2 -28 67 22 103 -25 246 -116 350 -68 77 -144 116 -273 137 -75 12 -102
10 -165 -11z m269 -108 c145 -67 235 -253 177 -369 -12 -23 -35 -53 -51 -66
l-30 -23 15 41 c13 36 13 45 0 70 -8 15 -28 39 -45 54 -27 22 -41 26 -97 26
-64 0 -67 -1 -109 -43 -46 -46 -60 -81 -50 -123 9 -33 50 -72 101 -95 l40 -18
-80 0 c-61 0 -104 8 -178 31 -140 44 -209 96 -236 180 -11 32 -9 43 10 89 l22
51 13 -48 c20 -82 97 -134 196 -134 29 0 48 10 98 52 69 57 80 78 80 149 0 92
-48 130 -166 133 -41 0 -74 3 -74 6 0 3 15 14 32 25 86 50 236 56 332 12z
m-242 -109 c53 -30 63 -67 37 -124 -12 -24 -33 -53 -47 -64 -70 -56 -212 20
-212 114 0 20 12 40 40 68 39 40 41 40 92 34 29 -4 69 -17 90 -28z m-544 -420
c17 -17 14 -49 -7 -77 -17 -22 -23 -24 -95 -19 -42 3 -79 8 -82 11 -7 6 56 65
90 84 27 16 79 16 94 1z m167 -202 c28 -19 67 -41 88 -50 20 -8 37 -21 37 -29
0 -8 16 -31 35 -51 57 -61 101 -253 76 -336 -30 -99 -141 -174 -278 -187 -119
-11 -264 44 -368 139 -89 81 -120 187 -80 271 25 53 223 237 255 237 14 0 35
3 47 6 15 4 24 0 32 -13 13 -25 49 -200 58 -289 6 -54 12 -69 25 -72 51 -10
46 167 -9 331 l-30 89 31 -6 c17 -4 54 -22 81 -40z"/>
<path d="M18790 4682 c-83 -7 -235 -75 -307 -136 -66 -57 -124 -190 -109 -248
8 -35 138 -194 187 -232 83 -63 120 -76 215 -76 81 0 103 4 209 33 152 41 300
182 327 309 11 54 11 58 -20 121 -82 167 -263 249 -502 229z m114 -87 c13 -9
47 -24 77 -34 40 -15 55 -25 60 -43 6 -22 4 -24 -16 -20 -16 3 -27 -2 -35 -17
-6 -12 -19 -20 -28 -19 -13 2 -17 -4 -15 -22 2 -45 9 -59 44 -98 32 -36 37
-38 54 -26 10 8 16 14 13 14 -4 0 0 21 9 46 10 31 20 44 29 40 27 -10 43 6 50
50 8 53 22 53 47 0 22 -47 24 -110 4 -157 -20 -48 -102 -134 -118 -123 -7 4
-10 3 -6 -3 4 -6 -4 -18 -18 -27 -30 -20 -46 -21 -19 -1 29 22 6 18 -33 -6
-26 -16 -37 -19 -46 -10 -8 8 -8 11 1 11 7 0 12 5 12 12 0 6 -9 3 -20 -7 -15
-14 -17 -21 -9 -32 9 -10 7 -13 -9 -13 -11 0 -23 6 -25 13 -3 6 -6 3 -6 -8 -1
-17 -3 -18 -11 -5 -8 12 -12 12 -18 2 -17 -26 -102 -25 -181 2 -89 31 -134 64
-161 116 -24 47 -24 51 -5 44 24 -10 18 20 -11 51 -39 42 -20 97 53 152 32 25
45 28 107 28 75 -1 142 -24 154 -53 3 -9 -6 -25 -23 -39 -27 -24 -27 -25 -5
-21 36 5 34 -16 -2 -30 -18 -6 -57 -33 -87 -59 l-54 -47 -29 17 c-40 23 -46
22 -40 -10 6 -37 30 -63 58 -63 14 0 29 -11 42 -34 26 -45 77 -62 130 -46 60
20 80 37 92 82 9 31 14 38 21 27 7 -12 9 -11 9 3 0 9 3 23 6 32 4 10 1 16 -8
16 -15 0 -55 48 -58 71 -5 29 0 41 15 36 31 -13 39 64 9 89 -37 30 -144 74
-179 74 -54 0 -42 15 33 38 82 25 115 27 146 7z m185 -96 c11 -19 12 -21 0 -9
-8 8 -21 20 -29 28 -12 11 -12 13 -1 10 8 -2 21 -15 30 -29z"/>
<path d="M18990 4178 c0 -15 18 -17 30 -3 9 11 8 14 -9 12 -12 -1 -21 -5 -21
-9z"/>
<path d="M18278 4143 c7 -3 16 -2 19 1 4 3 -2 6 -13 5 -11 0 -14 -3 -6 -6z"/>
<path d="M18380 4125 c41 -8 76 -12 78 -10 8 7 -74 25 -113 24 -32 -1 -24 -4
35 -14z"/>
<path d="M32227 6340 c-211 -25 -579 -148 -709 -238 -24 -16 -57 -38 -75 -48
-103 -61 -192 -134 -305 -247 -71 -70 -139 -145 -153 -166 -13 -22 -29 -42
-35 -46 -6 -3 -17 -21 -25 -38 -8 -18 -35 -59 -59 -92 -24 -33 -69 -110 -99
-172 -31 -62 -67 -127 -80 -145 -14 -18 -29 -46 -33 -63 -4 -16 -27 -67 -51
-113 -24 -45 -43 -92 -43 -103 0 -11 -8 -36 -19 -57 -10 -20 -21 -55 -25 -77
-4 -22 -17 -78 -31 -125 -13 -47 -31 -139 -40 -205 -10 -66 -21 -136 -26 -156
-5 -20 -14 -117 -19 -215 -6 -99 -15 -231 -20 -295 -7 -79 -8 -155 -1 -240 11
-133 43 -325 59 -355 5 -11 24 -72 41 -137 17 -65 36 -126 41 -135 5 -9 25
-51 45 -92 32 -66 116 -196 270 -419 93 -135 356 -311 590 -396 225 -82 399
-109 650 -102 167 4 201 8 278 31 49 14 112 38 140 52 275 138 448 430 422
714 -16 180 -35 214 -182 335 -146 120 -245 169 -518 261 -237 79 -297 107
-352 167 -46 50 -67 118 -61 197 l3 45 58 3 c69 4 189 -25 321 -75 211 -81
234 -87 346 -87 97 -1 109 1 152 26 65 39 153 140 180 207 19 48 22 74 22 191
0 127 -2 140 -30 211 -65 163 -204 338 -341 429 -152 102 -256 117 -506 76
-87 -14 -178 -26 -204 -26 l-46 0 6 66 c6 86 53 181 110 227 94 75 180 94 347
77 115 -12 345 -72 420 -110 19 -9 68 -25 109 -35 66 -16 86 -17 183 -6 204
22 354 89 437 194 80 102 110 171 121 284 15 144 -9 247 -98 418 -27 52 -65
99 -152 186 -127 129 -207 186 -391 283 -234 123 -407 161 -622 136z m347
-122 c177 -47 393 -182 556 -347 188 -189 258 -313 267 -471 6 -103 -15 -178
-72 -264 -87 -132 -235 -189 -480 -188 -96 1 -112 4 -336 75 -227 72 -298 83
-416 70 -116 -13 -189 -39 -258 -91 -99 -75 -175 -226 -175 -350 0 -75 8 -93
54 -121 46 -29 90 -27 253 11 102 23 164 31 238 32 92 1 105 -1 165 -30 162
-77 343 -292 404 -480 9 -28 18 -89 19 -135 2 -73 -2 -92 -25 -141 -34 -72
-99 -143 -163 -176 -40 -21 -64 -26 -120 -26 -65 0 -78 4 -175 53 -156 80
-275 120 -395 133 -56 6 -118 8 -139 4 -32 -6 -40 -13 -56 -49 -28 -66 -33
-116 -16 -196 18 -87 49 -143 109 -199 65 -59 138 -92 376 -171 116 -39 247
-89 290 -111 210 -109 331 -277 331 -458 0 -93 -18 -164 -64 -257 -93 -186
-260 -311 -480 -356 -121 -25 -409 -36 -531 -20 -180 24 -354 85 -497 174
-275 171 -542 503 -656 813 -42 113 -98 340 -113 459 -22 179 -1 610 47 965
38 277 143 571 319 890 141 256 266 414 446 565 177 148 352 247 514 290 55
15 138 38 185 51 47 12 127 31 179 40 52 10 113 23 135 31 54 17 176 9 280
-19z m268 -3335 c8 -10 19 -31 22 -48 7 -29 7 -29 -13 -11 -30 27 -53 76 -37
76 7 0 20 -8 28 -17z"/>
<path d="M27050 6292 c0 -6 4 -13 9 -16 10 -7 45 -78 57 -116 4 -14 10 -61 15
-105 l7 -80 -2 100 c-2 85 -6 106 -26 140 -32 54 -60 90 -60 77z"/>
<path d="M4194 6233 c-6 -4 -16 -18 -23 -30 -11 -21 -9 -23 13 -23 14 0 27 -3
29 -7 3 -5 -14 -6 -38 -5 -48 4 -86 -12 -140 -60 -71 -62 -78 -111 -29 -184
14 -20 24 -38 22 -39 -27 -28 -238 -134 -414 -210 -239 -102 -355 -143 -494
-176 -110 -27 -273 -36 -326 -19 -126 40 -177 162 -119 283 46 98 186 195 263
184 54 -8 104 13 115 48 9 25 6 32 -23 58 -31 28 -37 29 -92 23 -74 -7 -164
-43 -222 -87 -109 -84 -204 -249 -192 -336 8 -60 68 -174 111 -211 98 -87 212
-112 381 -86 60 10 125 17 144 16 19 0 54 10 80 23 25 13 101 40 170 60 69 20
186 61 260 92 183 75 179 75 234 20 25 -25 62 -78 82 -119 20 -40 56 -107 79
-148 24 -41 64 -124 91 -185 55 -125 106 -186 173 -206 105 -31 252 54 319
187 27 52 45 163 37 223 -8 58 -40 163 -66 212 -10 21 -19 40 -19 43 0 2 33
-5 73 -15 69 -17 284 -57 437 -81 109 -16 306 -13 385 7 105 26 245 97 298
150 94 93 91 181 -9 278 -117 114 -261 154 -213 59 7 -15 51 -64 96 -110 46
-45 83 -91 83 -101 0 -26 -63 -79 -135 -112 -80 -38 -221 -69 -315 -69 -176 0
-442 54 -625 127 -72 29 -325 147 -345 161 -2 1 1 11 8 20 7 9 21 34 31 55 11
24 21 34 24 25 2 -7 4 3 2 23 -3 52 -31 85 -121 147 -11 7 -3 5 16 -4 42 -20
122 -98 112 -110 -4 -5 0 -3 10 4 16 13 35 1 25 -15 -6 -10 19 -34 27 -26 3 4
6 1 6 -5 0 -9 10 -8 35 2 19 8 35 12 35 9 0 -3 10 2 22 13 12 10 18 13 14 6
-7 -11 -4 -12 13 -3 11 7 21 15 21 18 0 3 -3 4 -6 0 -3 -3 -17 7 -31 24 -14
16 -30 26 -35 22 -6 -3 -8 -2 -5 4 7 11 -84 93 -101 93 -6 0 -12 3 -14 8 -5
12 -130 55 -173 59 -22 2 -45 0 -51 -4z m51 -234 c9 -9 -39 -114 -57 -125 -4
-2 -12 6 -19 18 -6 13 -27 40 -47 60 -26 27 -31 39 -21 42 8 2 28 9 44 15 32
10 83 5 100 -10z m-84 -336 c73 -81 93 -116 124 -220 36 -119 44 -116 46 17 2
76 -1 92 -30 154 -17 38 -30 70 -29 72 10 9 131 -62 179 -105 114 -102 166
-299 113 -426 -22 -55 -89 -122 -141 -141 -43 -17 -46 -17 -80 1 -29 16 -44
38 -90 135 -98 205 -217 421 -257 467 -21 24 -37 45 -35 47 2 2 27 11 54 20
28 9 57 20 64 25 19 12 40 1 82 -46z"/>
<path d="M4184 5978 l-19 -21 28 18 c28 18 33 25 19 25 -5 0 -17 -10 -28 -22z"/>
<path d="M35118 6180 c-218 -39 -411 -98 -576 -176 -220 -104 -344 -222 -510
-489 -14 -22 -34 -52 -44 -68 -10 -15 -28 -46 -39 -70 -11 -23 -26 -53 -34
-67 -58 -102 -115 -293 -115 -387 0 -65 33 -192 68 -262 49 -99 144 -234 207
-296 66 -65 185 -138 274 -168 36 -12 106 -21 210 -28 210 -12 337 -26 451
-51 91 -19 294 -88 355 -121 56 -30 133 -106 146 -145 6 -20 20 -49 31 -64 10
-15 25 -60 32 -100 7 -40 18 -82 24 -94 6 -12 16 -70 22 -131 11 -104 10 -113
-14 -197 -15 -49 -26 -96 -26 -105 0 -9 -11 -32 -25 -51 -14 -19 -25 -40 -25
-47 0 -19 -112 -99 -162 -116 -93 -32 -157 -47 -200 -47 -85 0 -201 28 -286
70 -88 44 -174 122 -352 319 -142 158 -266 218 -472 228 -101 5 -110 4 -160
-20 -88 -43 -206 -172 -298 -324 -78 -130 -77 -450 2 -586 128 -224 393 -455
718 -629 65 -34 291 -129 343 -144 334 -95 620 -78 882 51 172 85 299 206 464
439 298 422 379 624 416 1041 7 73 -24 354 -51 470 -37 162 -107 317 -194 430
-110 143 -250 270 -360 325 -60 30 -361 132 -520 175 -211 57 -216 62 -180
158 37 100 121 154 262 172 63 8 128 -3 343 -57 305 -76 377 -90 470 -91 100
-2 164 19 218 71 65 62 107 180 107 302 -1 196 -126 463 -275 584 -135 110
-348 214 -531 260 -226 57 -410 68 -596 36z m412 -90 c195 -22 401 -96 551
-196 82 -55 189 -167 237 -247 85 -142 114 -321 73 -456 -51 -167 -159 -202
-396 -127 -187 59 -409 107 -521 113 -97 5 -120 3 -189 -18 -102 -30 -182 -82
-222 -145 -35 -55 -63 -140 -63 -192 0 -92 117 -158 381 -217 129 -28 294 -76
347 -100 118 -54 233 -156 325 -288 125 -178 187 -293 212 -392 32 -127 55
-320 55 -460 0 -326 -70 -510 -364 -958 -112 -170 -194 -262 -316 -351 -202
-149 -329 -195 -560 -203 -166 -6 -343 18 -479 63 -136 45 -363 173 -513 289
-40 31 -96 74 -123 95 -54 40 -168 159 -218 225 -39 53 -82 149 -97 218 -19
82 -8 236 23 317 114 304 276 418 498 350 151 -45 217 -93 332 -238 163 -205
246 -265 464 -332 172 -53 333 -41 488 34 82 41 152 106 188 179 105 207 83
578 -49 837 -68 134 -171 207 -397 281 -129 42 -321 79 -409 79 -122 0 -381
28 -447 49 -151 47 -270 171 -388 409 -42 83 -47 101 -51 177 -8 145 28 268
135 460 131 238 245 378 383 470 90 60 295 160 413 200 88 31 254 68 347 78
75 8 269 6 350 -3z m636 -1997 c-7 -7 -26 7 -26 19 0 6 6 6 15 -2 9 -7 13 -15
11 -17z"/>
<path d="M36140 5485 c0 -8 5 -15 10 -15 6 0 10 7 10 15 0 8 -4 15 -10 15 -5
0 -10 -7 -10 -15z"/>
<path d="M27122 5885 c0 -16 2 -22 5 -12 2 9 2 23 0 30 -3 6 -5 -1 -5 -18z"/>
<path d="M11825 5730 c-201 -15 -406 -71 -600 -165 -221 -106 -378 -254 -567
-535 -125 -186 -305 -549 -388 -785 -87 -249 -150 -617 -135 -795 33 -398 129
-711 291 -955 79 -119 256 -289 413 -395 147 -99 470 -228 661 -265 269 -50
616 -35 840 37 244 79 459 266 579 506 48 96 98 253 121 387 12 66 25 124 29
128 5 4 53 19 107 32 249 62 386 190 454 425 28 95 38 321 20 430 -40 234
-274 464 -547 534 -148 39 -666 56 -783 27 -79 -19 -196 -75 -248 -118 -59
-48 -127 -141 -167 -228 -51 -110 -90 -274 -89 -375 0 -77 4 -92 38 -162 60
-124 129 -178 354 -279 83 -37 90 -53 43 -110 -89 -107 -261 -128 -418 -49
-162 82 -338 296 -408 498 -39 111 -46 283 -16 403 38 153 133 314 259 437
163 160 353 204 732 169 236 -22 333 -7 480 75 92 51 187 144 223 218 46 95
70 227 64 360 -6 138 -25 195 -96 290 -59 78 -110 117 -234 175 -159 76 -215
84 -577 89 -173 3 -369 1 -435 -4z m576 -90 c57 -6 129 -15 159 -21 104 -19
279 -80 337 -118 76 -49 138 -130 158 -206 30 -118 13 -352 -34 -443 -32 -63
-124 -156 -189 -190 -125 -67 -248 -77 -494 -41 -213 31 -273 26 -487 -47
l-173 -59 -52 -64 c-137 -171 -160 -201 -203 -274 -146 -247 -162 -560 -43
-824 41 -90 144 -236 206 -291 66 -59 191 -133 264 -158 71 -23 213 -23 295 1
173 49 243 145 201 274 -9 27 -16 57 -16 66 0 13 -6 15 -28 11 -39 -9 -144 28
-230 81 -81 50 -145 122 -162 181 -45 162 48 469 183 605 105 107 171 126 463
134 219 6 367 -6 509 -42 345 -87 510 -284 508 -605 -1 -228 -71 -414 -189
-504 -69 -53 -136 -73 -300 -91 -82 -9 -152 -19 -156 -21 -15 -10 -8 -35 19
-61 26 -27 26 -28 14 -88 -31 -154 -112 -394 -166 -490 -72 -128 -223 -269
-362 -336 -102 -50 -308 -103 -463 -119 -183 -20 -423 7 -600 67 -192 64 -557
286 -714 433 -193 182 -271 321 -360 646 -50 185 -70 329 -70 519 1 232 23
335 139 650 104 281 158 398 293 635 188 333 415 552 685 660 258 103 735 162
1058 130z"/>
<path d="M28535 5510 c-3 -6 1 -7 9 -4 18 7 21 14 7 14 -6 0 -13 -4 -16 -10z"/>
<path d="M27370 5463 c-8 -3 -40 -15 -70 -26 -66 -25 -152 -103 -186 -169 -81
-159 54 -318 286 -338 47 -4 75 -8 63 -9 -16 -1 -23 -7 -23 -22 0 -16 -5 -20
-20 -16 -11 3 -22 1 -25 -3 -3 -4 -25 -2 -50 5 -47 15 -61 4 -23 -16 12 -7 43
-17 69 -24 39 -10 51 -10 71 1 12 7 30 16 38 20 30 14 50 38 50 59 0 22 22 40
34 28 3 -4 6 -16 6 -28 0 -53 61 -145 105 -159 12 -3 41 -7 65 -8 32 -1 54 -8
76 -27 16 -14 60 -42 97 -61 37 -19 67 -40 67 -46 0 -21 -59 -92 -106 -128
-76 -59 -156 -60 -219 -5 -42 37 -103 134 -111 178 -6 29 -2 37 40 76 l47 43
-30 21 c-16 12 -40 21 -53 21 -12 0 -95 -18 -183 -39 -221 -54 -292 -65 -427
-65 -108 -1 -119 1 -140 21 l-22 23 30 42 c45 64 115 98 222 107 48 4 97 13
110 20 24 13 21 25 -22 84 -25 34 -66 36 -162 6 -125 -38 -215 -104 -260 -190
-41 -80 17 -184 120 -214 64 -19 201 -19 333 1 58 8 111 13 119 10 7 -3 14 -1
16 4 5 13 43 17 41 4 -4 -19 46 -163 80 -233 18 -38 59 -94 94 -132 57 -60 68
-67 122 -79 35 -7 104 -11 172 -8 108 3 118 5 197 42 57 27 96 54 128 88 45
48 94 141 94 178 0 25 -7 25 130 -6 137 -31 230 -29 328 8 256 96 274 351 32
473 -27 14 -63 26 -81 27 -28 3 -37 -3 -62 -39 -17 -24 -28 -45 -25 -48 3 -3
31 -10 63 -15 64 -10 115 -43 146 -94 41 -67 10 -143 -76 -186 -46 -23 -61
-25 -180 -24 -121 0 -136 3 -220 33 -108 39 -395 176 -395 188 0 5 11 24 25
43 14 19 25 43 25 54 0 16 2 18 9 7 13 -20 24 4 12 26 -6 10 -17 35 -25 55
-20 52 -75 78 -161 78 l-66 0 8 38 c26 128 -37 253 -161 316 -54 27 -153 43
-186 29z m111 -103 c19 -5 55 -27 78 -47 74 -63 91 -138 45 -193 -32 -38 -68
-57 -114 -61 -19 -2 -44 -9 -55 -16 -31 -20 -41 -15 -18 10 33 36 32 50 -4 90
-26 29 -33 46 -31 69 4 41 23 46 42 11 9 -16 15 -21 16 -12 0 25 -58 108 -85
121 -14 6 -25 15 -25 19 0 18 96 24 151 9z m-167 -66 c20 -19 21 -58 2 -73
-10 -8 -25 -9 -48 -3 -40 10 -40 35 -2 70 30 26 28 26 48 6z m-89 -114 c10
-11 21 -40 25 -64 l7 -44 -24 15 c-31 20 -43 44 -43 82 0 36 10 39 35 11z
m595 -227 c0 -12 -66 -73 -79 -73 -15 0 -55 62 -46 72 4 4 125 5 125 1z m-294
-443 c46 -88 105 -144 175 -164 71 -21 104 -20 170 8 78 32 140 85 194 168 38
57 49 67 61 57 20 -16 18 -33 -13 -95 -56 -115 -159 -174 -318 -182 -99 -5
-137 5 -199 53 -83 63 -149 215 -131 302 l8 38 8 -58 c5 -35 23 -86 45 -127z"/>
<path d="M27540 5223 c0 -27 -3 -66 -6 -88 l-6 -40 26 34 c28 38 36 107 14
129 -21 21 -28 13 -28 -35z"/>
<path d="M28164 5386 c-77 -18 -130 -45 -170 -88 -68 -72 -79 -130 -40 -213
24 -52 137 -168 176 -180 11 -3 18 -10 16 -14 -3 -4 3 -7 12 -8 9 -1 37 -9 62
-19 54 -21 150 -23 204 -5 21 7 57 30 79 50 113 102 117 282 7 392 -80 80
-218 114 -346 85z m234 -121 c38 -21 57 -39 71 -69 25 -50 37 -121 23 -130
-17 -10 -72 62 -72 94 0 32 -24 53 -72 64 -39 9 -34 -4 13 -38 39 -27 47 -49
18 -53 -60 -8 -90 -16 -102 -27 -37 -37 -117 -58 -164 -42 -25 8 -63 64 -63
92 0 11 19 38 41 62 32 33 49 42 75 42 57 0 104 -74 52 -82 -13 -2 -50 0 -82
4 -33 5 -61 6 -63 4 -12 -12 21 -44 55 -54 43 -13 81 -5 114 25 15 13 18 12
28 -8 15 -27 24 -14 35 47 6 38 4 43 -23 63 -17 11 -40 25 -53 31 -19 8 -8 9
47 7 54 -3 83 -11 122 -32z m-138 -220 c0 -15 -6 -25 -14 -25 -24 0 -30 22
-11 37 25 17 25 17 25 -12z m-83 -1 c-3 -3 -12 -4 -19 -1 -8 3 -5 6 6 6 11 1
17 -2 13 -5z"/>
<path d="M7333 5325 c-104 -32 -257 -139 -366 -254 -132 -141 -307 -410 -383
-591 -58 -138 -171 -482 -198 -603 -93 -419 -33 -838 181 -1255 102 -199 247
-392 368 -488 133 -106 352 -220 519 -270 169 -51 296 -68 501 -69 202 0 262
8 459 56 145 36 234 71 396 156 153 80 231 135 334 233 144 137 251 286 398
550 156 280 224 468 263 724 45 303 46 732 2 986 -43 242 -86 409 -121 460
-46 69 -204 221 -268 259 -32 18 -97 47 -145 64 -80 29 -99 32 -208 31 -99 0
-130 -4 -180 -22 -150 -56 -262 -180 -292 -327 -8 -38 -20 -90 -26 -115 -6
-25 -9 -65 -8 -90 5 -84 3 -195 -7 -350 -8 -135 -13 -162 -36 -210 -14 -30
-26 -61 -26 -69 0 -27 -79 -147 -121 -185 -68 -62 -120 -81 -219 -81 -72 1
-94 5 -143 29 -49 23 -66 39 -98 89 -81 125 -82 133 -88 652 -6 411 -8 464
-24 495 -50 101 -134 155 -297 190 -108 23 -111 23 -167 5z m1888 -121 c226
-66 371 -233 452 -519 58 -202 71 -310 72 -570 0 -208 -3 -254 -22 -345 -12
-58 -24 -145 -28 -195 -14 -203 -62 -352 -203 -632 -84 -169 -126 -239 -202
-340 -158 -212 -340 -388 -508 -492 -260 -162 -645 -247 -989 -220 -231 18
-489 123 -738 299 -211 151 -448 495 -513 745 -77 296 -88 668 -31 1007 25
148 55 246 119 393 26 61 68 159 94 218 88 209 243 404 416 526 107 75 166
104 235 112 33 5 79 11 101 15 85 13 236 -86 249 -164 3 -20 1 -127 -4 -237
-20 -408 -5 -654 51 -802 38 -103 175 -207 322 -244 175 -44 348 63 459 286
50 101 78 190 83 269 2 38 9 87 15 109 7 26 8 106 3 237 -6 186 -6 201 15 271
28 92 58 145 110 192 40 36 104 73 151 88 47 14 233 10 291 -7z m493 -350 c3
-8 2 -12 -4 -9 -6 3 -10 10 -10 16 0 14 7 11 14 -7z"/>
<path d="M27330 4465 c0 -15 58 -112 72 -121 6 -4 2 8 -9 27 -12 19 -30 50
-42 69 -11 19 -21 31 -21 25z"/>
<path d="M27440 4295 c19 -19 36 -35 39 -35 3 0 -10 16 -29 35 -19 19 -36 35
-39 35 -3 0 10 -16 29 -35z"/>
<path d="M27590 4161 c-133 -19 -257 -72 -340 -146 -38 -34 -59 -45 -84 -45
-35 0 -93 -36 -157 -97 -27 -25 -43 -33 -57 -29 -10 4 -72 45 -137 91 -65 47
-122 85 -127 85 -19 0 -48 -21 -48 -36 0 -72 215 -229 320 -234 72 -4 81 0
147 65 76 75 99 80 146 34 29 -29 30 -32 14 -44 -10 -7 -38 -16 -63 -20 -31
-4 -49 -13 -60 -30 -23 -36 -9 -64 44 -87 87 -38 103 -70 56 -107 -32 -25 -59
-26 -109 -5 -69 29 -135 -8 -114 -65 6 -14 19 -36 30 -47 28 -30 23 -84 -10
-101 -21 -10 -30 -9 -54 5 -47 27 -87 82 -87 120 0 31 -4 35 -65 62 -36 17
-95 44 -132 61 -239 110 -270 119 -283 84 -4 -11 -4 -30 1 -42 8 -22 31 -34
272 -146 90 -42 99 -49 116 -89 21 -49 77 -110 124 -135 22 -12 55 -18 105
-18 l73 0 10 -38 c18 -69 184 -225 304 -285 60 -30 244 -72 316 -72 67 0 239
35 349 71 139 46 209 96 263 186 19 32 19 32 49 17 29 -15 33 -15 86 13 60 31
120 104 145 178 l14 40 74 7 c78 7 109 27 109 69 0 10 5 19 12 19 6 0 9 2 6 6
-3 3 -68 6 -144 7 l-137 2 -13 -57 c-18 -77 -57 -152 -93 -177 -16 -12 -33
-21 -38 -21 -19 0 -73 67 -79 97 -6 28 -1 36 36 71 31 28 43 47 43 67 0 39
-36 67 -72 57 -40 -11 -118 -7 -136 8 -19 16 -19 69 1 98 18 26 41 27 108 7
69 -21 102 -19 120 7 9 12 16 26 16 31 0 4 -26 34 -57 65 -32 32 -66 72 -76
90 l-18 32 33 20 c64 41 174 4 172 -57 -1 -26 4 -32 55 -55 51 -24 61 -26 111
-17 171 31 292 111 237 158 -11 8 -38 3 -113 -23 -156 -53 -158 -53 -193 -2
-85 123 -204 158 -314 93 l-39 -24 -48 47 c-50 48 -154 108 -275 155 -59 23
-88 28 -180 31 -60 1 -135 -1 -165 -5z m315 -145 c142 -39 235 -101 275 -183
13 -26 28 -57 33 -68 5 -11 6 -20 1 -22 -46 -15 -82 -44 -102 -81 -29 -52 -40
-148 -22 -192 16 -40 62 -78 103 -85 32 -6 33 -8 33 -58 -1 -34 6 -67 21 -96
20 -40 21 -47 8 -71 -40 -77 -145 -127 -352 -169 -177 -36 -298 -24 -443 46
-135 65 -261 220 -277 341 -5 38 -4 41 21 46 14 4 36 8 49 11 44 9 88 46 107
88 25 54 25 103 0 152 -12 24 -16 41 -10 43 18 6 40 60 40 99 0 22 -11 57 -26
83 -24 42 -24 45 -7 58 33 25 92 52 146 67 69 20 316 14 402 -9z"/>
<path d="M29473 2555 c0 -22 2 -30 4 -17 2 12 2 30 0 40 -3 9 -5 -1 -4 -23z"/>
</g>
</svg>
