<?xml version="1.0" standalone="no"?>
<!DOCTYPE svg PUBLIC "-//W3C//DTD SVG 20010904//EN"
 "http://www.w3.org/TR/2001/REC-SVG-20010904/DTD/svg10.dtd">
<svg version="1.0" xmlns="http://www.w3.org/2000/svg"
 width="600.000000pt" height="108.000000pt" viewBox="0 0 600.000000 108.000000"
 preserveAspectRatio="xMidYMid meet">

<g transform="translate(0.000000,108.000000) scale(0.100000,-0.100000)"
fill="#000000" stroke="none">
<path d="M696 1049 c-25 -20 -76 -106 -76 -129 0 -24 17 -6 44 46 37 71 76 93
134 76 52 -16 84 -47 80 -80 -4 -39 -42 -39 -111 -3 -36 19 -57 25 -57 17 0
-6 5 -17 12 -24 9 -9 9 -12 -2 -12 -8 -1 -28 -11 -43 -24 -32 -26 -25 -38 28
-50 60 -14 116 -56 136 -101 47 -107 34 -190 -43 -272 -59 -62 -144 -107 -235
-124 -73 -13 -71 -7 -53 -158 11 -98 -2 -141 -50 -161 -36 -15 -194 -10 -210
6 -7 7 -15 87 -21 205 -5 107 -16 248 -24 314 -20 159 -20 157 20 209 34 45
35 47 19 71 -13 20 -14 31 -5 56 11 31 8 49 -8 49 -5 0 -14 -20 -21 -44 -32
-115 -170 -196 -170 -100 0 80 101 194 171 194 18 0 49 -65 49 -102 0 -20 5
-40 12 -44 8 -5 10 10 5 57 -5 52 -10 68 -32 86 -36 31 -64 29 -121 -10 -59
-41 -105 -110 -111 -170 -5 -38 -2 -47 18 -61 44 -30 77 -21 136 38 64 64 79
53 32 -22 l-31 -51 17 -143 c10 -79 21 -227 24 -330 8 -224 10 -229 110 -236
92 -7 145 5 182 39 l32 30 -6 123 -6 123 63 16 c34 8 85 26 112 38 67 31 166
132 182 185 38 130 -17 251 -138 300 l-50 20 25 24 c25 23 26 23 60 7 45 -21
99 -22 119 -1 20 19 20 28 0 70 -31 65 -144 95 -198 53z"/>
<path d="M386 905 c-38 -13 -74 -29 -79 -34 -22 -22 1 -19 63 6 53 22 81 27
152 27 108 1 114 20 7 23 -58 2 -89 -2 -143 -22z"/>
<path d="M4329 896 c-15 -31 -6 -67 26 -104 14 -17 25 -37 25 -46 0 -26 17
-18 24 10 6 22 1 32 -28 59 -34 31 -44 54 -30 68 24 24 74 -57 74 -120 0 -51
6 -56 42 -37 35 18 77 21 136 10 42 -8 42 -8 42 22 0 36 51 85 84 80 38 -5 23
-31 -24 -43 -40 -10 -45 -14 -48 -40 -2 -26 4 -34 49 -60 105 -62 168 -168
155 -263 -3 -26 -19 -74 -34 -107 -31 -65 -31 -85 -2 -85 31 0 33 -19 5 -30
-24 -9 -25 -12 -14 -27 13 -15 12 -15 -7 -5 -25 13 -47 1 -38 -22 6 -14 2 -17
-17 -14 -18 2 -24 9 -23 26 1 26 -18 29 -37 6 -44 -53 -192 -68 -262 -26 -51
29 -66 28 -78 -8 -12 -34 -29 -40 -29 -10 0 21 -15 27 -25 10 -3 -5 -13 -10
-21 -10 -8 0 -14 5 -14 10 0 6 7 10 15 10 8 0 15 7 15 15 0 9 -9 15 -24 15
-14 0 -28 5 -31 10 -4 6 7 10 25 10 37 0 37 23 0 28 -38 6 -53 -24 -33 -62 9
-17 19 -38 23 -46 4 -8 17 -15 28 -15 12 0 24 -4 28 -8 17 -17 46 -6 57 22
l11 29 40 -21 c60 -32 196 -31 247 1 31 19 38 20 48 8 21 -25 64 -30 81 -9 8
11 23 22 33 26 9 3 20 15 24 24 3 10 13 26 21 35 12 14 12 20 2 33 -7 8 -21
15 -31 15 -24 0 -24 -3 7 65 37 81 43 167 15 230 -31 71 -66 112 -128 152 -30
19 -53 39 -51 45 2 6 19 16 38 22 23 7 38 20 44 39 12 34 -2 50 -44 50 -34 0
-100 -55 -100 -82 0 -13 -13 -16 -67 -16 -38 0 -78 -4 -90 -8 -22 -8 -23 -6
-23 34 0 61 -47 129 -90 129 -6 0 -15 -11 -21 -24z"/>
<path d="M115 850 c-10 -11 -15 -20 -11 -20 14 0 46 21 46 30 0 16 -16 11 -35
-10z"/>
<path d="M383 855 c-37 -16 -51 -54 -34 -91 10 -22 8 -24 -13 -24 -26 0 -56
-37 -56 -68 0 -29 33 -52 73 -52 35 0 37 -2 48 -45 28 -110 140 -153 236 -90
29 19 62 88 63 128 0 26 2 27 48 27 80 0 120 49 70 84 -28 20 -37 12 -15 -12
10 -10 17 -21 17 -25 0 -12 -72 -28 -103 -22 -68 13 -128 39 -122 52 2 8 0 22
-7 32 -16 26 -63 13 -62 -18 1 -26 -40 -50 -129 -76 -68 -19 -87 -15 -87 19 0
24 31 52 43 39 4 -3 9 1 13 10 4 13 10 14 24 7 34 -18 70 -11 101 19 35 35 36
52 7 85 -29 31 -74 40 -115 21z m43 -26 c9 -16 -12 -33 -31 -25 -14 5 -15 9
-5 21 15 18 26 19 36 4z m46 -6 c10 -9 18 -21 18 -26 0 -19 -33 -47 -54 -47
-16 0 -18 2 -7 9 8 5 11 16 7 26 -5 13 -2 16 9 11 13 -4 14 -2 5 14 -18 34 -8
41 22 13z m-84 -47 c3 -12 -1 -17 -10 -14 -7 3 -15 13 -16 22 -3 12 1 17 10
14 7 -3 15 -13 16 -22z m163 -128 c1 -18 0 -44 -1 -57 -1 -15 3 -22 12 -19 9
3 13 22 13 56 -1 48 1 52 20 46 30 -9 65 -33 65 -45 0 -26 -31 -78 -58 -98
-68 -48 -142 -10 -142 72 0 42 2 45 38 60 52 21 52 21 53 -15z m-76 -135 c31
-27 91 -31 135 -8 17 9 30 13 30 11 0 -13 -63 -36 -97 -36 -70 1 -123 53 -122
120 0 33 1 32 14 -15 8 -29 24 -59 40 -72z"/>
<path d="M461 783 c-7 -8 -11 -16 -8 -19 2 -2 10 2 17 11 17 20 9 27 -9 8z"/>
<path d="M614 835 c-17 -17 -24 -34 -22 -54 1 -16 6 -27 10 -25 7 4 12 -8 10
-26 0 -3 7 -7 16 -8 9 -1 34 -4 54 -8 31 -5 41 -2 62 20 31 30 33 59 6 86 -45
45 -100 51 -136 15z m64 -23 c5 -17 -27 -27 -41 -13 -9 9 -8 14 3 21 18 11 32
8 38 -8z m45 4 c10 -8 16 -25 16 -42 -2 -25 -2 -26 -6 -5 -3 13 -13 26 -24 28
-10 3 -19 12 -19 19 0 17 10 17 33 0z m-61 -40 c3 3 8 -4 11 -16 6 -24 -1 -25
-31 -4 -27 19 -30 39 -3 25 10 -6 21 -8 23 -5z"/>
<path d="M2352 826 c-112 -28 -183 -114 -201 -240 -11 -78 -4 -107 34 -132 31
-20 120 -23 154 -5 12 7 24 11 26 9 2 -2 -6 -44 -19 -93 -13 -50 -29 -122 -36
-162 -12 -66 -11 -74 6 -105 36 -61 137 -88 203 -53 51 26 62 67 60 236 0 83
2 153 5 156 3 3 17 -4 32 -16 37 -29 67 -26 108 9 95 84 81 252 -29 335 -80
61 -234 89 -343 61z m218 -27 c174 -39 260 -240 150 -351 -35 -35 -63 -35
-108 -2 -28 22 -36 24 -43 13 -11 -18 -11 -12 -9 -180 1 -116 -2 -153 -14
-177 -38 -73 -187 -62 -217 15 -11 30 8 145 46 279 14 47 23 90 20 95 -4 5
-24 0 -45 -11 -46 -23 -137 -27 -165 -6 -32 23 -23 126 17 205 27 53 42 69 84
93 78 43 171 52 284 27z"/>
<path d="M5254 829 c-173 -31 -292 -205 -296 -434 -1 -97 12 -148 55 -211 47
-71 110 -106 200 -111 63 -4 76 -2 107 19 19 13 43 40 54 61 16 34 17 42 5 75
-12 32 -25 43 -94 77 -109 55 -114 89 -7 48 41 -15 44 -15 70 4 22 16 28 30
30 67 3 44 0 50 -38 88 -39 39 -42 41 -89 35 -53 -6 -63 -3 -54 19 12 32 43
37 113 18 81 -21 122 -13 153 28 39 53 13 130 -62 183 -49 33 -93 43 -147 34z
m124 -56 c112 -64 106 -187 -8 -169 -22 3 -58 9 -79 12 -59 10 -89 -2 -108
-40 -23 -50 -13 -69 34 -60 60 12 76 7 111 -31 25 -28 32 -43 30 -67 -5 -47
-27 -55 -91 -33 -65 22 -87 16 -87 -23 0 -35 20 -53 85 -77 70 -25 95 -50 95
-96 0 -67 -74 -108 -168 -94 -85 13 -148 62 -188 150 -20 41 -24 66 -24 145 0
143 32 238 107 321 42 47 72 64 145 83 62 16 87 13 146 -21z"/>
<path d="M2855 798 c-80 -74 -38 -189 48 -134 20 13 24 12 39 -9 17 -23 17
-24 -15 -48 -42 -32 -127 -154 -172 -248 -27 -56 -35 -86 -35 -127 0 -99 58
-164 145 -164 54 0 67 7 103 55 27 38 30 39 97 41 39 1 77 5 85 9 12 6 16 1
18 -18 10 -130 199 -192 254 -84 46 88 -3 354 -85 468 l-35 48 20 21 21 20 45
-24 c40 -21 48 -23 66 -10 28 18 34 88 11 122 -21 33 -73 64 -107 64 -22 0
-34 -10 -58 -47 -17 -27 -33 -58 -36 -71 -4 -13 -9 -21 -13 -19 -68 37 -108
49 -150 44 -25 -2 -53 -8 -63 -11 -13 -6 -17 1 -23 36 -9 49 -69 118 -104 118
-12 0 -37 -15 -56 -32z m106 -25 c19 -22 39 -77 39 -109 0 -28 2 -28 60 -8 54
19 101 12 152 -22 21 -13 41 -24 45 -24 5 1 22 32 40 70 30 65 34 70 64 70 43
0 99 -56 99 -99 0 -57 -64 -51 -95 9 -19 37 -50 42 -41 7 4 -17 -1 -30 -19
-47 -14 -13 -25 -27 -25 -31 0 -5 18 -34 40 -65 65 -94 108 -273 94 -397 -8
-69 -27 -87 -95 -87 -74 0 -129 57 -129 135 0 40 -3 41 -53 20 -41 -17 -113
-20 -122 -5 -11 17 -24 11 -39 -18 -29 -56 -62 -82 -106 -82 -130 0 -166 118
-86 282 44 92 126 200 171 228 19 12 35 25 35 29 0 4 -12 18 -26 32 -19 18
-24 30 -20 51 7 36 -9 36 -28 -1 -17 -32 -53 -46 -74 -29 -28 24 6 100 53 118
23 9 43 0 66 -27z"/>
<path d="M2963 530 c-31 -13 -46 -45 -33 -70 30 -55 101 -62 140 -13 24 31 25
35 3 62 -20 24 -77 35 -110 21z m75 -26 c27 -19 28 -40 3 -54 -27 -14 -29 -13
-25 17 1 15 -2 33 -8 40 -15 18 3 16 30 -3z m-40 -12 c2 -7 -5 -16 -17 -19
-11 -3 -18 -10 -14 -16 3 -6 1 -7 -5 -3 -13 8 -16 39 -5 50 11 10 36 3 41 -12z"/>
<path d="M3030 475 c0 -8 5 -15 10 -15 6 0 10 7 10 15 0 8 -4 15 -10 15 -5 0
-10 -7 -10 -15z"/>
<path d="M3169 511 c-36 -36 -36 -45 -3 -78 23 -23 32 -25 77 -21 62 6 77 2
77 -22 0 -30 -28 -31 -102 -2 -49 19 -73 34 -79 50 -11 30 -43 28 -66 -4 -16
-22 -29 -26 -95 -32 -84 -9 -98 -7 -98 14 0 10 6 11 26 4 33 -13 34 -13 34 5
0 16 -42 30 -65 21 -8 -3 -15 -16 -15 -29 0 -41 22 -50 104 -45 67 4 73 3 69
-13 -8 -30 49 -79 91 -79 41 0 80 40 70 73 -5 17 -3 19 12 12 67 -27 74 -29
101 -19 36 12 43 54 13 84 -11 11 -18 25 -15 30 8 13 -21 66 -40 74 -35 13
-67 5 -96 -23z m99 -3 c7 -7 12 -23 11 -37 0 -15 -3 -20 -6 -13 -2 6 -13 12
-23 12 -10 0 -17 7 -16 16 0 9 -4 19 -11 21 -7 3 -9 -3 -6 -16 6 -23 -20 -30
-33 -9 -17 27 59 51 84 26z m-59 -53 c6 3 11 -1 11 -9 0 -13 -4 -14 -24 -4
-14 6 -28 18 -31 26 -5 13 -2 12 14 -2 11 -10 25 -15 30 -11z m-92 -21 c-3 -3
-12 -4 -19 -1 -8 3 -5 6 6 6 11 1 17 -2 13 -5z m6 -69 c3 -26 4 -25 6 9 1 39
1 39 21 21 25 -22 24 -73 -1 -88 -24 -15 -66 0 -86 29 -17 26 -16 27 11 51 32
27 42 22 49 -22z"/>
<path d="M3810 811 c-65 -21 -190 -93 -229 -132 -75 -75 -93 -208 -36 -265 31
-31 49 -30 121 3 64 29 53 45 -11 19 -86 -36 -120 -13 -119 84 1 89 41 142
160 214 111 65 191 83 300 66 92 -14 149 -36 168 -65 38 -57 7 -224 -44 -240
-12 -4 -53 -4 -92 0 l-71 7 7 -63 c16 -165 18 -199 12 -234 -11 -56 -45 -85
-101 -85 -60 0 -98 21 -119 64 -21 44 -20 66 3 148 18 63 25 104 22 137 -1 11
-4 11 -15 1 -8 -6 -12 -18 -9 -26 3 -8 -5 -54 -17 -102 -28 -104 -23 -147 21
-197 70 -79 199 -62 229 31 12 35 9 159 -6 260 l-6 41 74 -5 74 -4 31 35 c22
25 34 52 42 99 24 125 -14 184 -138 212 -90 21 -182 20 -251 -3z"/>
<path d="M100 812 c0 -5 7 -9 15 -9 8 0 12 4 9 9 -3 4 -9 8 -15 8 -5 0 -9 -4
-9 -8z"/>
<path d="M5686 750 c-62 -24 -96 -57 -131 -125 -34 -68 -29 -110 19 -163 30
-32 40 -36 104 -43 116 -12 154 -43 156 -125 1 -55 -16 -74 -70 -74 -37 0 -49
6 -88 45 -70 69 -123 73 -163 12 -15 -21 -23 -48 -23 -75 0 -35 7 -50 40 -85
87 -95 226 -129 308 -75 67 45 142 179 142 254 0 110 -55 187 -156 221 -110
37 -61 60 81 38 44 -6 52 -4 69 14 26 28 17 102 -15 138 -58 62 -176 81 -273
43z m201 -29 c45 -21 69 -51 79 -97 9 -46 -9 -54 -90 -37 -81 17 -110 12 -132
-22 -24 -37 -12 -53 57 -72 104 -30 149 -92 149 -205 0 -53 -6 -73 -33 -122
-41 -73 -91 -116 -145 -123 -100 -13 -262 82 -262 156 0 37 23 86 44 94 26 10
74 -13 100 -48 45 -58 140 -71 182 -24 14 15 19 36 19 73 -2 108 -34 137 -169
151 -59 6 -74 11 -97 36 -41 44 -45 78 -16 136 30 58 48 76 107 102 59 27 150
27 207 2z"/>
<path d="M4346 704 c-9 -24 -7 -28 9 -14 17 14 20 30 6 30 -5 0 -12 -7 -15
-16z"/>
<path d="M4421 684 c-11 -15 -21 -30 -21 -35 0 -4 -12 -14 -27 -21 -30 -14
-41 -44 -24 -61 6 -6 30 -10 53 -9 39 2 45 -1 54 -26 17 -44 16 -46 -28 -71
-33 -18 -46 -21 -60 -12 -42 26 -53 1 -12 -26 21 -13 30 -14 45 -5 26 16 34
15 19 -3 -9 -10 -9 -15 -1 -15 6 0 11 -4 11 -9 0 -5 -8 -8 -17 -7 -12 1 -17
-6 -16 -17 1 -18 0 -18 -20 1 -25 22 -61 42 -76 42 -21 0 -11 -18 22 -38 17
-12 50 -34 72 -51 70 -53 95 -64 137 -58 21 3 51 13 66 23 15 10 30 17 34 16
4 -1 15 9 24 23 9 14 23 25 30 25 8 0 14 5 14 10 0 20 -48 11 -53 -10 -3 -11
-10 -20 -16 -20 -7 0 -9 9 -5 24 5 20 1 25 -18 29 -21 4 -20 4 5 6 29 1 34 10
15 29 -9 9 -9 12 -1 12 7 0 15 -4 18 -10 10 -16 51 -12 66 7 13 15 11 16 -13
11 -17 -3 -32 0 -40 9 -6 8 -21 13 -32 12 -12 -1 -33 3 -47 10 l-26 13 26 27
c21 22 33 27 57 24 43 -7 79 25 70 60 -3 14 -15 29 -26 32 -11 3 -20 15 -20
25 0 27 -44 54 -74 46 -13 -3 -31 -17 -41 -32 l-17 -26 -16 34 c-23 44 -61 50
-91 12z m64 -23 c0 -23 -22 -24 -28 -1 -4 16 -1 20 11 18 9 -2 17 -10 17 -17z
m124 -2 c9 15 31 7 31 -11 0 -6 -3 -8 -6 -5 -4 3 -14 2 -23 -2 -17 -9 -46 11
-34 23 4 4 10 1 15 -6 6 -10 10 -10 17 1z m-21 -58 c16 -8 28 -9 42 -1 29 16
67 -5 49 -27 -25 -29 -129 8 -129 46 0 10 3 12 8 5 4 -6 17 -16 30 -23z m-138
-1 c0 -4 -18 -10 -40 -12 -46 -4 -53 6 -12 20 28 9 52 6 52 -8z m90 -30 c12
-7 12 -12 2 -22 -14 -14 -42 -2 -50 20 -4 14 27 16 48 2z m33 -35 c-3 -9 -8
-14 -10 -11 -3 3 -2 9 2 15 9 16 15 13 8 -4z m4 -98 c12 -12 13 -18 2 -36 -12
-17 -11 -25 5 -52 23 -39 13 -50 -51 -56 -42 -5 -53 -1 -81 22 l-33 28 22 23
c15 16 20 32 17 53 -2 17 0 33 6 35 21 10 98 -2 113 -17z"/>
<path d="M1772 671 c-68 -23 -112 -66 -157 -152 -90 -171 -72 -352 42 -433
112 -79 249 -87 328 -18 27 24 64 94 65 123 0 10 12 19 30 22 39 8 70 58 70
115 0 77 -44 116 -143 128 -103 12 -167 -33 -167 -118 0 -37 15 -59 51 -78 10
-6 19 -15 19 -20 0 -17 -39 -21 -68 -6 -82 42 -93 160 -21 221 27 22 40 25
107 25 58 0 82 5 98 18 71 57 52 158 -34 182 -57 15 -161 11 -220 -9z m189
-11 c87 -16 118 -82 64 -136 -22 -22 -33 -24 -87 -23 -99 4 -134 -14 -169 -83
-25 -49 -24 -84 4 -138 28 -57 82 -89 124 -75 43 15 43 55 1 75 -38 17 -47 53
-27 101 16 41 42 52 116 51 103 -2 143 -33 143 -112 0 -48 -34 -90 -73 -90
-21 0 -26 -6 -31 -43 -13 -86 -61 -131 -150 -143 -96 -14 -216 43 -264 125
-24 41 -27 56 -27 142 0 95 1 98 45 185 54 105 95 142 178 160 73 16 88 16
153 4z"/>
<path d="M4293 648 c-69 -76 -93 -253 -49 -360 15 -35 33 -55 41 -46 3 2 -5
24 -17 48 -17 35 -22 63 -23 125 0 101 19 167 62 212 18 20 33 37 33 39 0 12
-30 1 -47 -18z"/>
<path d="M1030 574 c-75 -68 -130 -222 -115 -323 15 -104 90 -194 187 -227 64
-21 158 -15 214 14 55 28 130 111 162 180 24 51 27 68 27 167 -1 128 -15 173
-67 205 -47 28 -84 26 -119 -9 -25 -25 -29 -37 -29 -84 0 -65 -16 -114 -40
-127 -27 -14 -38 -12 -60 10 -17 17 -20 33 -20 109 0 82 -2 91 -22 105 -37 26
-74 20 -118 -20z m109 1 c7 -3 11 -44 11 -96 0 -82 2 -92 25 -114 62 -63 135
-2 135 111 0 82 26 119 78 110 77 -12 110 -93 98 -239 -8 -97 -44 -173 -112
-241 -106 -103 -277 -98 -379 12 -54 58 -72 182 -39 278 50 149 121 218 183
179z"/>
</g>
</svg>
