<?xml version="1.0" standalone="no"?>
<!DOCTYPE svg PUBLIC "-//W3C//DTD SVG 20010904//EN"
 "http://www.w3.org/TR/2001/REC-SVG-20010904/DTD/svg10.dtd">
<svg version="1.0" xmlns="http://www.w3.org/2000/svg"
 width="344.000000pt" height="171.000000pt" viewBox="0 0 344.000000 171.000000"
 preserveAspectRatio="xMidYMid meet">

<g transform="translate(0.000000,171.000000) scale(0.100000,-0.100000)"
fill="#000000" stroke="none">
<path d="M460 1680 c-166 -35 -339 -193 -414 -380 -25 -61 -26 -228 -2 -265
23 -35 49 -34 36 1 -14 36 -12 140 4 199 55 208 264 406 446 422 263 24 357
-293 158 -534 -83 -100 -205 -183 -268 -183 -37 0 -37 5 -5 117 70 240 170
490 217 540 19 20 19 23 5 23 -40 0 -132 -180 -211 -410 -25 -74 -50 -154 -56
-178 -12 -46 -30 -48 -30 -2 0 39 -9 60 -27 60 -22 0 -11 -105 13 -132 20 -21
17 -38 -43 -253 -56 -197 -135 -289 -208 -241 -29 19 -48 21 -43 4 7 -21 78
-36 123 -26 91 21 128 96 215 436 l11 42 50 0 c65 0 134 33 222 105 140 116
204 244 195 393 -7 119 -59 197 -159 241 -54 24 -165 34 -229 21z"/>
<path d="M2141 1338 c-5 -13 -28 -80 -51 -150 l-43 -126 -86 -27 c-96 -30
-111 -39 -93 -57 9 -9 27 -9 77 1 36 7 68 11 71 8 10 -10 -38 -162 -68 -217
-17 -30 -49 -79 -70 -108 -41 -55 -114 -115 -129 -106 -14 8 -10 108 6 153
l14 41 -39 25 c-22 14 -50 25 -63 25 -36 0 -116 -67 -117 -98 0 -26 -92 -110
-156 -142 -77 -40 -88 -34 -78 45 8 69 92 396 104 408 3 3 93 17 200 32 107
14 206 30 220 34 l25 8 -26 13 c-22 10 -61 8 -214 -9 -104 -12 -190 -19 -192
-17 -3 2 0 21 6 43 16 56 14 153 -2 153 -9 0 -18 -27 -26 -81 -20 -129 -15
-124 -123 -138 -51 -7 -102 -15 -112 -18 -20 -5 -20 -6 0 -20 15 -11 38 -13
108 -7 l88 7 -7 -24 c-5 -13 -21 -65 -36 -115 -15 -50 -36 -109 -47 -130 -22
-43 -103 -156 -109 -151 -1 2 2 41 9 87 11 81 11 83 -11 101 -28 23 -53 24
-89 5 -58 -31 -122 -127 -122 -184 0 -52 -120 -114 -149 -78 -16 19 -9 100 14
166 20 58 20 92 -1 88 -10 -2 -25 -26 -37 -58 -35 -95 -134 -230 -168 -230
-22 0 -21 61 4 169 18 83 23 119 15 128 -17 21 -24 16 -57 -52 -18 -35 -55
-89 -82 -119 -56 -61 -161 -136 -191 -136 -10 0 -16 -4 -13 -10 11 -17 84 -11
126 11 23 11 60 40 84 63 l43 43 5 -45 c6 -57 34 -86 83 -86 31 0 44 7 78 45
l41 44 28 -29 c25 -26 33 -28 78 -24 28 3 62 14 78 25 27 20 27 20 51 1 26
-21 62 -18 91 8 55 50 15 -27 -43 -82 -132 -124 -169 -197 -148 -291 13 -61
42 -99 82 -109 60 -14 113 92 158 310 11 54 20 107 20 117 0 10 26 50 58 88
l57 69 6 -45 c7 -58 29 -76 87 -70 39 4 130 56 140 79 7 16 20 7 26 -17 8 -32
59 -59 95 -50 14 3 38 18 52 31 23 22 27 23 33 9 3 -9 22 -23 41 -31 30 -12
40 -12 68 -1 36 16 76 53 118 110 l27 38 7 -31 c16 -74 107 -93 189 -39 26 17
48 30 49 28 2 -2 8 -17 15 -32 12 -29 63 -57 103 -57 32 0 100 43 127 79 13
17 33 53 44 79 l22 47 6 -53 c7 -64 35 -91 93 -92 39 0 116 34 177 79 53 38
160 132 195 169 l30 33 37 -28 c21 -15 45 -38 53 -50 15 -22 14 -23 -32 -47
-178 -90 -285 -242 -206 -293 63 -41 165 -8 258 84 60 58 80 106 72 168 l-6
43 47 20 c26 12 76 29 110 38 52 14 60 20 50 32 -15 18 -58 11 -162 -24 l-77
-25 -37 33 c-20 18 -47 41 -60 49 l-23 16 36 53 c20 29 34 58 32 64 -2 6 -15
18 -29 25 -24 14 -29 13 -67 -12 -44 -29 -61 -68 -43 -98 10 -15 1 -27 -54
-78 -105 -98 -275 -211 -319 -211 -11 0 -15 11 -15 39 0 52 14 88 38 95 26 9
108 88 126 125 9 16 13 37 10 45 -7 19 -45 30 -73 21 -31 -10 -97 -83 -121
-135 -29 -61 -56 -71 -64 -24 -9 47 -57 84 -109 84 -79 0 -144 -65 -172 -170
-14 -54 -23 -64 -92 -106 -28 -17 -53 -24 -75 -22 l-33 3 1 80 c0 56 9 110 29
180 43 152 39 148 147 178 51 15 201 57 332 95 225 64 272 83 229 94 -30 8
-394 -75 -570 -130 -75 -24 -73 -27 -39 96 38 134 41 162 22 162 -9 0 -20 -10
-25 -22z m550 -426 c-12 -22 -41 -48 -41 -36 0 8 40 54 47 54 2 0 -1 -8 -6
-18z m-242 -79 c14 -50 14 -53 -6 -53 -26 0 -83 37 -83 54 0 18 27 35 57 36
17 0 24 -8 32 -37z m-92 -39 c21 -14 50 -28 66 -31 34 -7 34 -18 -2 -75 -45
-70 -120 -120 -147 -97 -28 23 -10 171 27 216 15 17 12 17 56 -13z m-650 -22
c9 -6 7 -24 -8 -74 -17 -53 -30 -75 -65 -108 -64 -59 -80 -38 -49 67 11 35 27
62 55 87 42 38 48 40 67 28z m-574 -59 c-8 -32 -19 -66 -25 -76 -14 -27 -79
-97 -89 -97 -33 0 20 137 73 189 22 23 44 41 48 41 5 0 1 -26 -7 -57z m2001
-5 c-13 -44 -33 -73 -76 -115 -42 -40 -137 -98 -146 -89 -11 12 12 60 46 98
44 49 148 128 169 128 10 0 12 -6 7 -22z m-2064 -387 c-44 -218 -109 -313
-139 -204 -25 89 -2 153 90 249 34 35 64 62 66 60 2 -2 -5 -49 -17 -105z"/>
</g>
</svg>
