<svg width="163" height="47" viewBox="0 0 163 47" fill="none" xmlns="http://www.w3.org/2000/svg">
<path d="M32.9219 25.5508C32.9219 26.4023 32.7891 27.1758 32.5234 27.8711C32.2578 28.5664 31.8828 29.168 31.3984 29.6758C30.9219 30.1758 30.3438 30.5664 29.6641 30.8477C28.9844 31.1289 28.2227 31.2695 27.3789 31.2695C26.8008 31.2695 26.2383 31.1641 25.6914 30.9531C25.1523 30.7422 24.6484 30.4297 24.1797 30.0156V35.3711H22.5742V20.0781H24.1797V21.0859C25.1719 20.2422 26.2383 19.8203 27.3789 19.8203C28.2227 19.8203 28.9844 19.9609 29.6641 20.2422C30.3438 20.5156 30.9219 20.9102 31.3984 21.4258C31.8828 21.9336 32.2578 22.543 32.5234 23.2539C32.7891 23.957 32.9219 24.7227 32.9219 25.5508ZM31.3164 25.5508C31.3164 24.9414 31.2305 24.3711 31.0586 23.8398C30.8945 23.3008 30.6445 22.8359 30.3086 22.4453C29.9727 22.0547 29.5586 21.7461 29.0664 21.5195C28.582 21.293 28.0195 21.1797 27.3789 21.1797C26.7695 21.1797 26.1992 21.293 25.668 21.5195C25.1445 21.7461 24.6484 22.1133 24.1797 22.6211V28.4805C24.6484 28.9883 25.1445 29.3516 25.668 29.5703C26.1992 29.7891 26.7695 29.8984 27.3789 29.8984C28.0195 29.8984 28.582 29.7852 29.0664 29.5586C29.5586 29.332 29.9727 29.0234 30.3086 28.6328C30.6445 28.2422 30.8945 27.7852 31.0586 27.2617C31.2305 26.7305 31.3164 26.1602 31.3164 25.5508ZM35.6758 20.0781H37.2812V26.8281C37.2812 27.8047 37.4922 28.5625 37.9141 29.1016C38.3438 29.6328 39.0312 29.8984 39.9766 29.8984C40.5703 29.8984 41.1055 29.7617 41.582 29.4883C42.0586 29.2148 42.4648 28.8516 42.8008 28.3984C43.1367 27.9375 43.3906 27.4141 43.5625 26.8281C43.7422 26.2344 43.832 25.6172 43.832 24.9766V20.0781H45.4492V31H43.832V28.2695C43.0664 30.2695 41.6914 31.2695 39.707 31.2695C37.0195 31.2695 35.6758 29.7891 35.6758 26.8281V20.0781ZM58.5508 30.8828C58.5508 31.6328 58.4219 32.3008 58.1641 32.8867C57.9062 33.4727 57.543 33.9688 57.0742 34.375C56.6133 34.7812 56.0664 35.0898 55.4336 35.3008C54.8086 35.5195 54.1094 35.6289 53.3359 35.6289C52.25 35.6289 51.3242 35.4258 50.5586 35.0195C49.8008 34.6133 49.1445 34.0273 48.5898 33.2617L49.7148 32.3945C50.0508 32.9023 50.5352 33.3281 51.168 33.6719C51.8008 34.0156 52.5234 34.1875 53.3359 34.1875C54.4453 34.1875 55.3203 33.9062 55.9609 33.3438C56.6094 32.7891 56.9336 31.9844 56.9336 30.9297V29.7578C55.9805 30.6016 54.8945 31.0234 53.6758 31.0234C51.9648 31.0234 50.6211 30.5352 49.6445 29.5586C48.668 28.582 48.1797 27.2461 48.1797 25.5508C48.1797 24.7227 48.3047 23.9609 48.5547 23.2656C48.8125 22.5625 49.1758 21.957 49.6445 21.4492C50.1211 20.9336 50.6992 20.5352 51.3789 20.2539C52.0586 19.9648 52.8242 19.8203 53.6758 19.8203C54.2695 19.8203 54.8438 19.9258 55.3984 20.1367C55.9609 20.3398 56.4727 20.6484 56.9336 21.0625V20.0781H58.5508V30.8828ZM56.9336 22.6211C56.4727 22.1133 55.9648 21.7461 55.4102 21.5195C54.8633 21.293 54.2852 21.1797 53.6758 21.1797C53.0352 21.1797 52.4688 21.293 51.9766 21.5195C51.4922 21.7461 51.0898 22.0547 50.7695 22.4453C50.4492 22.8359 50.2031 23.3008 50.0312 23.8398C49.8672 24.3711 49.7852 24.9414 49.7852 25.5508C49.7852 26.8008 50.1094 27.7969 50.7578 28.5391C51.4062 29.2812 52.3789 29.6523 53.6758 29.6523C54.2852 29.6523 54.8633 29.5391 55.4102 29.3125C55.9648 29.0781 56.4727 28.7031 56.9336 28.1875V22.6211ZM72.3438 27.5195C72.2188 28.668 71.7656 29.582 70.9844 30.2617C70.2109 30.9336 69.2422 31.2695 68.0781 31.2695C67.4375 31.2695 66.8516 31.1641 66.3203 30.9531C65.7891 30.7422 65.3359 30.4492 64.9609 30.0742C64.5859 29.6992 64.293 29.25 64.082 28.7266C63.8789 28.1953 63.7773 27.6172 63.7773 26.9922V21.4492H61.3047V20.0781H63.7773V15.707H65.3828V20.0781H70.0352V21.4492H65.3828V26.9922C65.3828 27.3906 65.4453 27.7656 65.5703 28.1172C65.7031 28.4688 65.8828 28.7773 66.1094 29.043C66.3438 29.3086 66.625 29.5195 66.9531 29.6758C67.2812 29.8242 67.6562 29.8984 68.0781 29.8984C68.875 29.8984 69.5391 29.6523 70.0703 29.1602C70.6094 28.6602 70.918 28.0156 70.9961 27.2266L72.3438 27.5195ZM74.3828 28.0469C74.3828 27.3594 74.5547 26.7852 74.8984 26.3242C75.2422 25.8555 75.6914 25.4883 76.2461 25.2227C76.8086 24.9492 77.4492 24.7539 78.168 24.6367C78.8945 24.5117 79.6328 24.4492 80.3828 24.4492C80.6719 24.4492 80.9297 24.4531 81.1562 24.4609C81.3906 24.4688 81.6094 24.4805 81.8125 24.4961C82.0234 24.5117 82.2344 24.5312 82.4453 24.5547C82.6562 24.5781 82.8867 24.6055 83.1367 24.6367V23.8516C83.1367 23.3203 83.0195 22.8828 82.7852 22.5391C82.5586 22.1953 82.2773 21.9258 81.9414 21.7305C81.6055 21.5273 81.2539 21.3867 80.8867 21.3086C80.5195 21.2227 80.207 21.1797 79.9492 21.1797C79.1367 21.1797 78.3867 21.2891 77.6992 21.5078C77.0117 21.7266 76.3711 22.0195 75.7773 22.3867L75.0508 21.1797C75.707 20.7812 76.4414 20.457 77.2539 20.207C78.0742 19.9492 78.9727 19.8203 79.9492 19.8203C80.543 19.8203 81.125 19.8984 81.6953 20.0547C82.2734 20.2031 82.7891 20.4375 83.2422 20.7578C83.7031 21.0703 84.0703 21.4844 84.3438 22C84.6172 22.5156 84.7539 23.1328 84.7539 23.8516V31H83.1367V29.1719C82.8555 29.5234 82.5352 29.832 82.1758 30.0977C81.8242 30.3633 81.4531 30.582 81.0625 30.7539C80.6719 30.918 80.2812 31.043 79.8906 31.1289C79.5 31.2227 79.1289 31.2695 78.7773 31.2695C77.332 31.2695 76.2383 30.9922 75.4961 30.4375C74.7539 29.8828 74.3828 29.0859 74.3828 28.0469ZM78.7773 29.8984C79.4492 29.8984 80.0508 29.8008 80.582 29.6055C81.1211 29.4023 81.5781 29.1523 81.9531 28.8555C82.3281 28.5586 82.6172 28.2422 82.8203 27.9062C83.0312 27.5703 83.1367 27.2656 83.1367 26.9922V25.9609C82.6133 25.8828 82.1094 25.8398 81.625 25.832C81.1484 25.8242 80.7344 25.8203 80.3828 25.8203C79.8047 25.8203 79.2461 25.8594 78.707 25.9375C78.1758 26.0156 77.7109 26.1445 77.3125 26.3242C76.9141 26.4961 76.5938 26.7227 76.3516 27.0039C76.1094 27.2852 75.9883 27.6328 75.9883 28.0469C75.9883 28.5078 76.2109 28.9336 76.6562 29.3242C77.1094 29.707 77.8164 29.8984 78.7773 29.8984ZM98.5469 27.5195C98.4219 28.668 97.9688 29.582 97.1875 30.2617C96.4141 30.9336 95.4453 31.2695 94.2812 31.2695C93.6406 31.2695 93.0547 31.1641 92.5234 30.9531C91.9922 30.7422 91.5391 30.4492 91.1641 30.0742C90.7891 29.6992 90.4961 29.25 90.2852 28.7266C90.082 28.1953 89.9805 27.6172 89.9805 26.9922V21.4492H87.5078V20.0781H89.9805V15.707H91.5859V20.0781H96.2383V21.4492H91.5859V26.9922C91.5859 27.3906 91.6484 27.7656 91.7734 28.1172C91.9062 28.4688 92.0859 28.7773 92.3125 29.043C92.5469 29.3086 92.8281 29.5195 93.1562 29.6758C93.4844 29.8242 93.8594 29.8984 94.2812 29.8984C95.0781 29.8984 95.7422 29.6523 96.2734 29.1602C96.8125 28.6602 97.1211 28.0156 97.1992 27.2266L98.5469 27.5195ZM111.812 25.5742C111.812 26.4258 111.676 27.1992 111.402 27.8945C111.137 28.5898 110.75 29.1875 110.242 29.6875C109.742 30.1797 109.141 30.5664 108.438 30.8477C107.734 31.1289 106.949 31.2695 106.082 31.2695C105.23 31.2695 104.453 31.1289 103.75 30.8477C103.047 30.5664 102.441 30.1797 101.934 29.6875C101.434 29.1875 101.047 28.5898 100.773 27.8945C100.508 27.1992 100.375 26.4258 100.375 25.5742C100.375 24.7461 100.508 23.9766 100.773 23.2656C101.047 22.5469 101.434 21.9375 101.934 21.4375C102.441 20.9297 103.047 20.5352 103.75 20.2539C104.453 19.9648 105.23 19.8203 106.082 19.8203C106.949 19.8203 107.734 19.9648 108.438 20.2539C109.141 20.5352 109.742 20.9297 110.242 21.4375C110.75 21.9375 111.137 22.5469 111.402 23.2656C111.676 23.9766 111.812 24.7461 111.812 25.5742ZM110.207 25.5742C110.207 24.9492 110.113 24.375 109.926 23.8516C109.746 23.3203 109.477 22.8555 109.117 22.457C108.758 22.0586 108.32 21.7461 107.805 21.5195C107.297 21.293 106.723 21.1797 106.082 21.1797C105.441 21.1797 104.863 21.293 104.348 21.5195C103.84 21.7461 103.41 22.0586 103.059 22.457C102.707 22.8555 102.438 23.3203 102.25 23.8516C102.07 24.375 101.98 24.9492 101.98 25.5742C101.98 26.1992 102.07 26.7773 102.25 27.3086C102.438 27.832 102.707 28.2852 103.059 28.668C103.41 29.0508 103.84 29.3516 104.348 29.5703C104.863 29.7891 105.441 29.8984 106.082 29.8984C106.723 29.8984 107.297 29.7891 107.805 29.5703C108.32 29.3516 108.758 29.0508 109.117 28.668C109.477 28.2852 109.746 27.832 109.926 27.3086C110.113 26.7773 110.207 26.1992 110.207 25.5742ZM115.316 26.1016C115.434 27.2578 115.855 28.1797 116.582 28.8672C117.309 29.5547 118.254 29.8984 119.418 29.8984C120.238 29.8984 120.969 29.7305 121.609 29.3945C122.25 29.0586 122.73 28.6406 123.051 28.1406L124.176 28.9141C123.629 29.6797 122.977 30.2656 122.219 30.6719C121.461 31.0703 120.527 31.2695 119.418 31.2695C118.574 31.2695 117.801 31.1289 117.098 30.8477C116.395 30.5664 115.785 30.1758 115.27 29.6758C114.762 29.168 114.367 28.5664 114.086 27.8711C113.805 27.1758 113.664 26.4023 113.664 25.5508C113.664 24.7227 113.789 23.9609 114.039 23.2656C114.297 22.5625 114.664 21.957 115.141 21.4492C115.625 20.9336 116.211 20.5352 116.898 20.2539C117.586 19.9648 118.355 19.8203 119.207 19.8203C120.137 19.8203 120.949 19.9766 121.645 20.2891C122.34 20.6016 122.918 21.0352 123.379 21.5898C123.848 22.1367 124.191 22.793 124.41 23.5586C124.637 24.3242 124.75 25.1719 124.75 26.1016H115.316ZM123.051 24.7305C122.871 23.5352 122.438 22.6445 121.75 22.0586C121.062 21.4727 120.215 21.1797 119.207 21.1797C118.691 21.1797 118.215 21.2656 117.777 21.4375C117.34 21.6016 116.953 21.8398 116.617 22.1523C116.281 22.4648 116 22.8438 115.773 23.2891C115.547 23.7266 115.402 24.207 115.34 24.7305H123.051ZM137.441 27.9766C137.441 28.6172 137.281 29.1484 136.961 29.5703C136.641 29.9922 136.227 30.3281 135.719 30.5781C135.219 30.8281 134.656 31.0039 134.031 31.1055C133.414 31.2148 132.809 31.2695 132.215 31.2695C131.223 31.2695 130.234 31.125 129.25 30.8359C128.266 30.5469 127.414 30.168 126.695 29.6992L127.41 28.3164C128.215 28.8242 129.008 29.2148 129.789 29.4883C130.57 29.7617 131.379 29.8984 132.215 29.8984C134.629 29.8984 135.836 29.2734 135.836 28.0234C135.836 27.7188 135.734 27.4727 135.531 27.2852C135.336 27.0898 135.07 26.9336 134.734 26.8164C134.398 26.6914 134.012 26.5938 133.574 26.5234C133.145 26.4531 132.691 26.3867 132.215 26.3242C131.605 26.2383 131 26.1367 130.398 26.0195C129.797 25.9023 129.246 25.7266 128.746 25.4922C128.254 25.2578 127.855 24.9453 127.551 24.5547C127.254 24.1641 127.105 23.6484 127.105 23.0078C127.105 22.4609 127.242 21.9883 127.516 21.5898C127.797 21.1914 128.168 20.8594 128.629 20.5938C129.098 20.3281 129.645 20.1328 130.27 20.0078C130.895 19.8828 131.543 19.8203 132.215 19.8203C133.176 19.8203 134.035 19.9336 134.793 20.1602C135.551 20.3789 136.234 20.6953 136.844 21.1094L136.199 22.3633C135.574 21.9258 134.941 21.6211 134.301 21.4492C133.66 21.2695 132.965 21.1797 132.215 21.1797C131.879 21.1797 131.504 21.2109 131.09 21.2734C130.684 21.3281 130.305 21.4297 129.953 21.5781C129.602 21.7188 129.305 21.9062 129.062 22.1406C128.828 22.3672 128.711 22.6562 128.711 23.0078C128.711 23.3125 128.809 23.5586 129.004 23.7461C129.207 23.9258 129.477 24.0781 129.812 24.2031C130.148 24.3203 130.531 24.4141 130.961 24.4844C131.398 24.5547 131.855 24.6211 132.332 24.6836C132.926 24.7695 133.523 24.8711 134.125 24.9883C134.734 25.1055 135.285 25.2773 135.777 25.5039C136.277 25.7305 136.68 26.0391 136.984 26.4297C137.289 26.8203 137.441 27.3359 137.441 27.9766Z" fill="black"/>
<rect x="1" y="1" width="161" height="45" stroke="black" stroke-width="2"/>
</svg>
